999
dxflib 3.12.2.0
  0
SECTION
  2
HEADER
  9
$ACADVER
  1
AC1015
  9
$HANDSEED
  5
FFFF
  9
$DIMADEC
 70
0
  9
$DIMASZ
 40
2.5
  9
$DIMAUNIT
 70
0
  9
$DIMAZIN
 70
2
  9
$DIMDEC
 70
4
  9
$DIMEXE
 40
1.25
  9
$DIMEXO
 40
0.625
  9
$DIMGAP
 40
0.625
  9
$DIMLUNIT
 70
2
  9
$DIMSCALE
 40
1.0
  9
$DIMTSZ
 40
0.0
  9
$DIMTXT
 40
2.5
  9
$DIMZIN
 70
8
  9
$DWGCODEPAGE
  3
ANSI_1252
  9
$INSUNITS
 70
4
  9
$LTSCALE
 40
1.0
  9
$MEASUREMENT
 70
1
  9
$PDMODE
 70
0
  9
$PDSIZE
 40
0
  0
ENDSEC
  0
SECTION
  2
TABLES
  0
TABLE
  2
VPORT
  5
8
100
AcDbSymbolTable
 70
1
  0
VPORT
  5
30
100
AcDbSymbolTableRecord
100
AcDbViewportTableRecord
  2
*Active
 70
0
 10
0.0
 20
0.0
 11
1.0
 21
1.0
 12
286.3055555555554861
 22
148.5
 13
0.0
 23
0.0
 14
10.0
 24
10.0
 15
10.0
 25
10.0
 16
0.0
 26
0.0
 36
1.0
 17
0.0
 27
0.0
 37
0.0
 40
297.0
 41
1.92798353909465
 42
50.0
 43
0.0
 44
0.0
 50
0.0
 51
0.0
 71
0
 72
100
 73
1
 74
3
 75
1
 76
1
 77
0
 78
0
281
0
 65
1
110
0.0
120
0.0
130
0.0
111
1.0
121
0.0
131
0.0
112
0.0
122
1.0
132
0.0
 79
0
146
0.0
  0
ENDTAB
  0
TABLE
  2
LTYPE
  5
5
100
AcDbSymbolTable
 70
54
  0
LTYPE
  5
16
100
AcDbSymbolTableRecord
100
AcDbLinetypeTableRecord
  2
Continuous
 70
0
  3
Solid line
 72
65
 73
0
 40
0.0
  0
LTYPE
  5
31
100
AcDbSymbolTableRecord
100
AcDbLinetypeTableRecord
  2
DOT2
 70
0
  3
Dot (.5x) ........................................
 72
65
 73
2
 40
3.1749999999999998
 49
0.0
 74
0
 49
-3.1749999999999998
 74
0
  0
LTYPE
  5
32
100
AcDbSymbolTableRecord
100
AcDbLinetypeTableRecord
  2
DASHDOTX2
 70
0
  3
Dash dot (2x) ____  .  ____  .  ____  .  ___
 72
65
 73
4
 40
50.7999999999999972
 49
25.3999999999999986
 74
0
 49
-12.6999999999999993
 74
0
 49
0.0
 74
0
 49
-12.6999999999999993
 74
0
  0
LTYPE
  5
33
100
AcDbSymbolTableRecord
100
AcDbLinetypeTableRecord
  2
HIDDENX2
 70
0
  3
Hidden (2x) ____ ____ ____ ____ ____ ____ ____ 
 72
65
 73
2
 40
19.0499999999999972
 49
12.6999999999999993
 74
0
 49
-6.3499999999999996
 74
0
  0
LTYPE
  5
34
100
AcDbSymbolTableRecord
100
AcDbLinetypeTableRecord
  2
BORDER2
 70
0
  3
Border (.5x) __.__.__.__.__.__.__.__.__.__.__.
 72
65
 73
6
 40
22.2249999999999979
 49
6.3499999999999996
 74
0
 49
-3.1749999999999998
 74
0
 49
6.3499999999999996
 74
0
 49
-3.1749999999999998
 74
0
 49
0.0
 74
0
 49
-3.1749999999999998
 74
0
  0
LTYPE
  5
35
100
AcDbSymbolTableRecord
100
AcDbLinetypeTableRecord
  2
TRACKS
 70
0
  3
Tracks -|-|-|-|-|-|-|-|-|-|-|-|-|-|-|-|-|-|-|-|-|-|-|-|-
 72
65
 73
2
 40
7.6200000000000001
 49
3.8100000000000001
 74
0
 49
3.8100000000000001
 74
0
  0
LTYPE
  5
36
100
AcDbSymbolTableRecord
100
AcDbLinetypeTableRecord
  2
ACAD_ISO12W100
 70
0
  3
ISO dash double-dot __ . . __ . . __ . . __ . . 
 72
65
 73
6
 40
21.0
 49
12.0
 74
0
 49
-3.0
 74
0
 49
0.0
 74
0
 49
-3.0
 74
0
 49
0.0
 74
0
 49
-3.0
 74
0
  0
LTYPE
  5
37
100
AcDbSymbolTableRecord
100
AcDbLinetypeTableRecord
  2
CUTLEFT
 70
0
  3
G41 ----\----\----\----
 72
65
 73
2
 40
10.1600000000000001
 49
5.0800000000000001
 74
0
 49
5.0800000000000001
 74
0
  0
LTYPE
  5
38
100
AcDbSymbolTableRecord
100
AcDbLinetypeTableRecord
  2
DIVIDE2
 70
0
  3
Divide (.5x) __..__..__..__..__..__..__..__.._
 72
65
 73
6
 40
15.875
 49
6.3499999999999996
 74
0
 49
-3.1749999999999998
 74
0
 49
0.0
 74
0
 49
-3.1749999999999998
 74
0
 49
0.0
 74
0
 49
-3.1749999999999998
 74
0
  0
LTYPE
  5
39
100
AcDbSymbolTableRecord
100
AcDbLinetypeTableRecord
  2
DASHEDX2
 70
0
  3
Dashed (2x) ____  ____  ____  ____  ____  ___
 72
65
 73
2
 40
38.0999999999999943
 49
25.3999999999999986
 74
0
 49
-12.6999999999999993
 74
0
  0
LTYPE
  5
3A
100
AcDbSymbolTableRecord
100
AcDbLinetypeTableRecord
  2
ACAD_ISO04W100
 70
0
  3
ISO long-dash dot ____ . ____ . ____ . ____ . _
 72
65
 73
4
 40
30.0
 49
24.0
 74
0
 49
-3.0
 74
0
 49
0.0
 74
0
 49
-3.0
 74
0
  0
LTYPE
  5
3B
100
AcDbSymbolTableRecord
100
AcDbLinetypeTableRecord
  2
BORDER
 70
0
  3
Border __ __ . __ __ . __ __ . __ __ . __ __ .
 72
65
 73
6
 40
44.4499999999999957
 49
12.6999999999999993
 74
0
 49
-6.3499999999999996
 74
0
 49
12.6999999999999993
 74
0
 49
-6.3499999999999996
 74
0
 49
0.0
 74
0
 49
-6.3499999999999996
 74
0
  0
LTYPE
  5
3C
100
AcDbSymbolTableRecord
100
AcDbLinetypeTableRecord
  2
DRAINAGE
 70
0
  3
Drainage ---->---->---->----
 72
65
 73
2
 40
10.1600000000000001
 49
5.0800000000000001
 74
0
 49
5.0800000000000001
 74
0
  0
LTYPE
  5
3D
100
AcDbSymbolTableRecord
100
AcDbLinetypeTableRecord
  2
ACAD_ISO11W100
 70
0
  3
ISO double-dash dot __ __ . __ __ . __ __ . __ _
 72
65
 73
6
 40
33.0
 49
12.0
 74
0
 49
-3.0
 74
0
 49
12.0
 74
0
 49
-3.0
 74
0
 49
0.0
 74
0
 49
-3.0
 74
0
  0
LTYPE
  5
3E
100
AcDbSymbolTableRecord
100
AcDbLinetypeTableRecord
  2
HIDDEN2
 70
0
  3
Hidden (.5x) _ _ _ _ _ _ _ _ _ _ _ _ _ _ _ _ _ 
 72
65
 73
2
 40
4.7624999999999993
 49
3.1749999999999998
 74
0
 49
-1.5874999999999999
 74
0
  0
LTYPE
  5
3F
100
AcDbSymbolTableRecord
100
AcDbLinetypeTableRecord
  2
PHANTOMX2
 70
0
  3
Phantom (2x) ____________    ____    ____   _
 72
65
 73
6
 40
127.0000000000000142
 49
63.5
 74
0
 49
-12.6999999999999993
 74
0
 49
12.6999999999999993
 74
0
 49
-12.6999999999999993
 74
0
 49
12.6999999999999993
 74
0
 49
-12.6999999999999993
 74
0
  0
LTYPE
  5
40
100
AcDbSymbolTableRecord
100
AcDbLinetypeTableRecord
  2
ACAD_ISO03W100
 70
0
  3
ISO dash space __    __    __    __    __    __
 72
65
 73
2
 40
30.0
 49
12.0
 74
0
 49
-18.0
 74
0
  0
LTYPE
  5
41
100
AcDbSymbolTableRecord
100
AcDbLinetypeTableRecord
  2
HOT_WATER_SUPPLY
 70
0
  3
Hot water supply ---- HW ---- HW ---- HW ----
 72
65
 73
3
 40
22.8599999999999994
 49
12.6999999999999993
 74
0
 49
-5.0800000000000001
 74
0
 49
-5.0800000000000001
 74
0
  0
LTYPE
  5
42
100
AcDbSymbolTableRecord
100
AcDbLinetypeTableRecord
  2
HIDDEN
 70
0
  3
Hidden __ __ __ __ __ __ __ __ __ __ __ __ __ __
 72
65
 73
2
 40
9.5249999999999986
 49
6.3499999999999996
 74
0
 49
-3.1749999999999998
 74
0
  0
LTYPE
  5
43
100
AcDbSymbolTableRecord
100
AcDbLinetypeTableRecord
  2
BATTING
 70
0
  3
Batting SSSSSSSSSSSSSSSSSSSSSSSSSSSSSSSSSSSSSSSSSSSSSSS
 72
65
 73
4
 40
10.1625399999999999
 49
0.00254
 74
0
 49
-2.54
 74
0
 49
-5.0800000000000001
 74
0
 49
-2.54
 74
0
  0
LTYPE
  5
44
100
AcDbSymbolTableRecord
100
AcDbLinetypeTableRecord
  2
ACAD_ISO10W100
 70
0
  3
ISO dash dot __ . __ . __ . __ . __ . __ . __ . 
 72
65
 73
4
 40
18.0
 49
12.0
 74
0
 49
-3.0
 74
0
 49
0.0
 74
0
 49
-3.0
 74
0
  0
LTYPE
  5
45
100
AcDbSymbolTableRecord
100
AcDbLinetypeTableRecord
  2
ACAD_ISO02W100
 70
0
  3
ISO dash __ __ __ __ __ __ __ __ __ __ __ __ __
 72
65
 73
2
 40
15.0
 49
12.0
 74
0
 49
-3.0
 74
0
  0
LTYPE
  5
14
100
AcDbSymbolTableRecord
100
AcDbLinetypeTableRecord
  2
BYBLOCK
 70
0
  3

 72
65
 73
0
 40
0.0
  0
LTYPE
  5
46
100
AcDbSymbolTableRecord
100
AcDbLinetypeTableRecord
  2
DASHDOT2
 70
0
  3
Dash dot (.5x) _._._._._._._._._._._._._._._.
 72
65
 73
4
 40
12.6999999999999993
 49
6.3499999999999996
 74
0
 49
-3.1749999999999998
 74
0
 49
0.0
 74
0
 49
-3.1749999999999998
 74
0
  0
LTYPE
  5
47
100
AcDbSymbolTableRecord
100
AcDbLinetypeTableRecord
  2
FENCELINE1
 70
0
  3
Fenceline circle ----0-----0----0-----0----0-----0--
 72
65
 73
4
 40
36.8299999999999983
 49
6.3499999999999996
 74
0
 49
-2.54
 74
0
 49
-2.54
 74
0
 49
25.3999999999999986
 74
0
  0
LTYPE
  5
48
100
AcDbSymbolTableRecord
100
AcDbLinetypeTableRecord
  2
FENCELINE2
 70
0
  3
Fenceline square ----[]-----[]----[]-----[]----[]---
 72
65
 73
4
 40
36.8299999999999983
 49
6.3499999999999996
 74
0
 49
-2.54
 74
0
 49
-2.54
 74
0
 49
25.3999999999999986
 74
0
  0
LTYPE
  5
49
100
AcDbSymbolTableRecord
100
AcDbLinetypeTableRecord
  2
ZIGZAG
 70
0
  3
Zig zag /\/\/\/\/\/\/\/\/\/\/\/\/\/\/\/\/\/\/\/\/\/\/\/
 72
65
 73
4
 40
20.32254
 49
0.00254
 74
0
 49
-5.0800000000000001
 74
0
 49
-10.1600000000000001
 74
0
 49
-5.0800000000000001
 74
0
  0
LTYPE
  5
4A
100
AcDbSymbolTableRecord
100
AcDbLinetypeTableRecord
  2
DASHED2
 70
0
  3
Dashed (.5x) _ _ _ _ _ _ _ _ _ _ _ _ _ _ _ _ _ 
 72
65
 73
2
 40
9.5249999999999986
 49
6.3499999999999996
 74
0
 49
-3.1749999999999998
 74
0
  0
LTYPE
  5
4B
100
AcDbSymbolTableRecord
100
AcDbLinetypeTableRecord
  2
ACAD_ISO09W100
 70
0
  3
ISO long-dash double-short-dash ____ __ __ ____
 72
65
 73
6
 40
45.0
 49
24.0
 74
0
 49
-3.0
 74
0
 49
6.0
 74
0
 49
-3.0
 74
0
 49
6.0
 74
0
 49
-3.0
 74
0
  0
LTYPE
  5
4C
100
AcDbSymbolTableRecord
100
AcDbLinetypeTableRecord
  2
DRAINAGE2
 70
0
  3
Drainage reversed----<----<----<----
 72
65
 73
2
 40
10.1600000000000001
 49
5.0800000000000001
 74
0
 49
5.0800000000000001
 74
0
  0
LTYPE
  5
4D
100
AcDbSymbolTableRecord
100
AcDbLinetypeTableRecord
  2
CENTERX2
 70
0
  3
Center (2x) ________  __  ________  __  _____
 72
65
 73
4
 40
101.6000000000000085
 49
63.5
 74
0
 49
-12.6999999999999993
 74
0
 49
12.6999999999999993
 74
0
 49
-12.6999999999999993
 74
0
  0
LTYPE
  5
15
100
AcDbSymbolTableRecord
100
AcDbLinetypeTableRecord
  2
BYLAYER
 70
0
  3

 72
65
 73
0
 40
0.0
  0
LTYPE
  5
4E
100
AcDbSymbolTableRecord
100
AcDbLinetypeTableRecord
  2
ACAD_ISO08W100
 70
0
  3
ISO long-dash short-dash ____ __ ____ __ ____ _
 72
65
 73
4
 40
36.0
 49
24.0
 74
0
 49
-3.0
 74
0
 49
6.0
 74
0
 49
-3.0
 74
0
  0
LTYPE
  5
4F
100
AcDbSymbolTableRecord
100
AcDbLinetypeTableRecord
  2
CUTLEFT2
 70
0
  3
G41 reversed----/----/----/----
 72
65
 73
2
 40
10.1600000000000001
 49
5.0800000000000001
 74
0
 49
5.0800000000000001
 74
0
  0
LTYPE
  5
50
100
AcDbSymbolTableRecord
100
AcDbLinetypeTableRecord
  2
CENTER2
 70
0
  3
Center (.5x) ___ _ ___ _ ___ _ ___ _ ___ _ ___
 72
65
 73
4
 40
28.5750000000000028
 49
19.0500000000000007
 74
0
 49
-3.1749999999999998
 74
0
 49
3.1749999999999998
 74
0
 49
-3.1749999999999998
 74
0
  0
LTYPE
  5
51
100
AcDbSymbolTableRecord
100
AcDbLinetypeTableRecord
  2
GAS_LINE
 70
0
  3
Gas line ----GAS----GAS----GAS----GAS----GAS----GAS--
 72
65
 73
3
 40
24.1300000000000026
 49
12.6999999999999993
 74
0
 49
-5.0800000000000001
 74
0
 49
-6.3499999999999996
 74
0
  0
LTYPE
  5
52
100
AcDbSymbolTableRecord
100
AcDbLinetypeTableRecord
  2
ACAD_ISO15W100
 70
0
  3
ISO double-dash triple-dot __ __ . . . __ __ . .
 72
65
 73
10
 40
39.0
 49
12.0
 74
0
 49
-3.0
 74
0
 49
12.0
 74
0
 49
-3.0
 74
0
 49
0.0
 74
0
 49
-3.0
 74
0
 49
0.0
 74
0
 49
-3.0
 74
0
 49
0.0
 74
0
 49
-3.0
 74
0
  0
LTYPE
  5
53
100
AcDbSymbolTableRecord
100
AcDbLinetypeTableRecord
  2
DIVIDEX2
 70
0
  3
Divide (2x) ________  .  .  ________  .  .  _
 72
65
 73
6
 40
63.5
 49
25.3999999999999986
 74
0
 49
-12.6999999999999993
 74
0
 49
0.0
 74
0
 49
-12.6999999999999993
 74
0
 49
0.0
 74
0
 49
-12.6999999999999993
 74
0
  0
LTYPE
  5
54
100
AcDbSymbolTableRecord
100
AcDbLinetypeTableRecord
  2
ACAD_ISO07W100
 70
0
  3
ISO dot . . . . . . . . . . . . . . . . . . . . 
 72
65
 73
2
 40
3.0
 49
0.0
 74
0
 49
-3.0
 74
0
  0
LTYPE
  5
55
100
AcDbSymbolTableRecord
100
AcDbLinetypeTableRecord
  2
DASHDOT
 70
0
  3
Dash dot __ . __ . __ . __ . __ . __ . __ . __
 72
65
 73
4
 40
25.3999999999999986
 49
12.6999999999999993
 74
0
 49
-6.3499999999999996
 74
0
 49
0.0
 74
0
 49
-6.3499999999999996
 74
0
  0
LTYPE
  5
56
100
AcDbSymbolTableRecord
100
AcDbLinetypeTableRecord
  2
BORDERX2
 70
0
  3
Border (2x) ____  ____  .  ____  ____  .  ___
 72
65
 73
6
 40
88.8999999999999915
 49
25.3999999999999986
 74
0
 49
-12.6999999999999993
 74
0
 49
25.3999999999999986
 74
0
 49
-12.6999999999999993
 74
0
 49
0.0
 74
0
 49
-12.6999999999999993
 74
0
  0
LTYPE
  5
57
100
AcDbSymbolTableRecord
100
AcDbLinetypeTableRecord
  2
CENTER
 70
0
  3
Center ____ _ ____ _ ____ _ ____ _ ____ _ ____
 72
65
 73
4
 40
50.8000000000000043
 49
31.75
 74
0
 49
-6.3499999999999996
 74
0
 49
6.3499999999999996
 74
0
 49
-6.3499999999999996
 74
0
  0
LTYPE
  5
58
100
AcDbSymbolTableRecord
100
AcDbLinetypeTableRecord
  2
ACAD_ISO14W100
 70
0
  3
ISO dash triple-dot __ . . . __ . . . __ . . . _
 72
65
 73
8
 40
24.0
 49
12.0
 74
0
 49
-3.0
 74
0
 49
0.0
 74
0
 49
-3.0
 74
0
 49
0.0
 74
0
 49
-3.0
 74
0
 49
0.0
 74
0
 49
-3.0
 74
0
  0
LTYPE
  5
59
100
AcDbSymbolTableRecord
100
AcDbLinetypeTableRecord
  2
DIVIDE
 70
0
  3
Divide ____ . . ____ . . ____ . . ____ . . ____
 72
65
 73
6
 40
31.75
 49
12.6999999999999993
 74
0
 49
-6.3499999999999996
 74
0
 49
0.0
 74
0
 49
-6.3499999999999996
 74
0
 49
0.0
 74
0
 49
-6.3499999999999996
 74
0
  0
LTYPE
  5
5A
100
AcDbSymbolTableRecord
100
AcDbLinetypeTableRecord
  2
ACAD_ISO06W100
 70
0
  3
ISO long-dash triple-dot ____ ... ____ ... ____
 72
65
 73
8
 40
36.0
 49
24.0
 74
0
 49
-3.0
 74
0
 49
0.0
 74
0
 49
-3.0
 74
0
 49
0.0
 74
0
 49
-3.0
 74
0
 49
0.0
 74
0
 49
-3.0
 74
0
  0
LTYPE
  5
5B
100
AcDbSymbolTableRecord
100
AcDbLinetypeTableRecord
  2
DASHED
 70
0
  3
Dashed __ __ __ __ __ __ __ __ __ __ __ __ __ _
 72
65
 73
2
 40
19.0499999999999972
 49
12.6999999999999993
 74
0
 49
-6.3499999999999996
 74
0
  0
LTYPE
  5
5C
100
AcDbSymbolTableRecord
100
AcDbLinetypeTableRecord
  2
CUTRIGHT
 70
0
  3
G42 ----/----/-----/---
 72
65
 73
2
 40
10.1600000000000001
 49
5.0800000000000001
 74
0
 49
5.0800000000000001
 74
0
  0
LTYPE
  5
5D
100
AcDbSymbolTableRecord
100
AcDbLinetypeTableRecord
  2
PHANTOM2
 70
0
  3
Phantom (.5x) ___ _ _ ___ _ _ ___ _ _ ___ _ _
 72
65
 73
6
 40
31.7500000000000036
 49
15.875
 74
0
 49
-3.1749999999999998
 74
0
 49
3.1749999999999998
 74
0
 49
-3.1749999999999998
 74
0
 49
3.1749999999999998
 74
0
 49
-3.1749999999999998
 74
0
  0
LTYPE
  5
5E
100
AcDbSymbolTableRecord
100
AcDbLinetypeTableRecord
  2
PHANTOM
 70
0
  3
Phantom ______  __  __  ______  __  __  ______ 
 72
65
 73
6
 40
63.5000000000000071
 49
31.75
 74
0
 49
-6.3499999999999996
 74
0
 49
6.3499999999999996
 74
0
 49
-6.3499999999999996
 74
0
 49
6.3499999999999996
 74
0
 49
-6.3499999999999996
 74
0
  0
LTYPE
  5
5F
100
AcDbSymbolTableRecord
100
AcDbLinetypeTableRecord
  2
DOTX2
 70
0
  3
Dot (2x) .  .  .  .  .  .  .  .  .  .  .  .  .  .
 72
65
 73
2
 40
12.6999999999999993
 49
0.0
 74
0
 49
-12.6999999999999993
 74
0
  0
LTYPE
  5
60
100
AcDbSymbolTableRecord
100
AcDbLinetypeTableRecord
  2
ACAD_ISO13W100
 70
0
  3
ISO double-dash double-dot __ __ . . __ __ . . _
 72
65
 73
8
 40
36.0
 49
12.0
 74
0
 49
-3.0
 74
0
 49
12.0
 74
0
 49
-3.0
 74
0
 49
0.0
 74
0
 49
-3.0
 74
0
 49
0.0
 74
0
 49
-3.0
 74
0
  0
LTYPE
  5
61
100
AcDbSymbolTableRecord
100
AcDbLinetypeTableRecord
  2
DOT
 70
0
  3
Dot . . . . . . . . . . . . . . . . . . . . . . . .
 72
65
 73
2
 40
6.3499999999999996
 49
0.0
 74
0
 49
-6.3499999999999996
 74
0
  0
LTYPE
  5
62
100
AcDbSymbolTableRecord
100
AcDbLinetypeTableRecord
  2
CUTRIGHT2
 70
0
  3
G42 reversed----\----\----\----
 72
65
 73
2
 40
10.1600000000000001
 49
5.0800000000000001
 74
0
 49
5.0800000000000001
 74
0
  0
LTYPE
  5
63
100
AcDbSymbolTableRecord
100
AcDbLinetypeTableRecord
  2
ACAD_ISO05W100
 70
0
  3
ISO long-dash double-dot ____ .. ____ .. ____ . 
 72
65
 73
6
 40
33.0
 49
24.0
 74
0
 49
-3.0
 74
0
 49
0.0
 74
0
 49
-3.0
 74
0
 49
0.0
 74
0
 49
-3.0
 74
0
  0
ENDTAB
  0
TABLE
  2
LAYER
  5
2
100
AcDbSymbolTable
 70
1
  0
LAYER
  5
10
100
AcDbSymbolTableRecord
100
AcDbLayerTableRecord
  2
0
 70
0
 62
7
420
16777215
  6
Continuous
370
25
390
F
  0
ENDTAB
  0
TABLE
  2
STYLE
  5
3
100
AcDbSymbolTable
 70
1
  0
STYLE
  5
64
100
AcDbSymbolTableRecord
100
AcDbTextStyleTableRecord
  2
Standard
 70
0
 40
0.0
 41
1.0
 50
0.0
 71
0
 42
2.5
  3

  4

1001
ACAD
1000
txt
1071
0
  0
ENDTAB
  0
TABLE
  2
VIEW
  5
6
100
AcDbSymbolTable
 70
0
  0
ENDTAB
  0
TABLE
  2
UCS
  5
7
100
AcDbSymbolTable
 70
0
  0
ENDTAB
  0
TABLE
  2
APPID
  5
9
100
AcDbSymbolTable
 70
1
  0
APPID
  5
12
100
AcDbSymbolTableRecord
100
AcDbRegAppTableRecord
  2
ACAD
 70
0
  0
APPID
  5
65
100
AcDbSymbolTableRecord
100
AcDbRegAppTableRecord
  2
QCAD
 70
0
  0
ENDTAB
  0
TABLE
  2
DIMSTYLE
  5
A
100
AcDbSymbolTable
 70
1
100
AcDbDimStyleTable
 71
0
  0
DIMSTYLE
105
27
100
AcDbSymbolTableRecord
100
AcDbDimStyleTableRecord
  2
Standard
 41
2.5
 42
0.625
 43
3.75
 44
1.25
 70
0
 73
0
 74
0
 77
1
 78
8
140
2.5
141
2.5
143
0.03937007874016
147
0.625
171
3
172
1
271
2
272
2
274
3
278
44
283
0
284
8
340
64
  0
ENDTAB
  0
TABLE
  2
BLOCK_RECORD
  5
1
100
AcDbSymbolTable
 70
1
  0
BLOCK_RECORD
  5
1F
100
AcDbSymbolTableRecord
100
AcDbBlockTableRecord
  2
*Model_Space
340
22
  0
BLOCK_RECORD
  5
1B
100
AcDbSymbolTableRecord
100
AcDbBlockTableRecord
  2
*Paper_Space
340
1E
  0
BLOCK_RECORD
  5
23
100
AcDbSymbolTableRecord
100
AcDbBlockTableRecord
  2
*Paper_Space0
340
26
  0
ENDTAB
  0
ENDSEC
  0
SECTION
  2
BLOCKS
  0
BLOCK
  5
20
100
AcDbEntity
  8
0
100
AcDbBlockBegin
  2
*Model_Space
 70
0
 10
0.0
 20
0.0
 30
0.0
  3
*Model_Space
  1

  0
ENDBLK
  5
21
100
AcDbEntity
  8
0
100
AcDbBlockEnd
  0
BLOCK
  5
1C
100
AcDbEntity
 67
1
  8
0
100
AcDbBlockBegin
  2
*Paper_Space
 70
0
 10
0.0
 20
0.0
 30
0.0
  3
*Paper_Space
  1

  0
ENDBLK
  5
1D
100
AcDbEntity
 67
1
  8
0
100
AcDbBlockEnd
  0
BLOCK
  5
24
100
AcDbEntity
  8
0
100
AcDbBlockBegin
  2
*Paper_Space0
 70
0
 10
0.0
 20
0.0
 30
0.0
  3
*Paper_Space0
  1

  0
ENDBLK
  5
25
100
AcDbEntity
  8
0
100
AcDbBlockEnd
  0
ENDSEC
  0
SECTION
  2
ENTITIES
  0
LINE
  5
66
100
AcDbEntity
100
AcDbLine
  8
0
 62
256
370
-1
 48
1.0
  6
BYLAYER
 10
1.0458991789547127
 20
167.1197998079996694
 30
0.0
 11
1.0458991789547127
 21
167.1197998079996694
 31
0.0
  0
LINE
  5
67
100
AcDbEntity
100
AcDbLine
  8
0
 62
256
370
-1
 48
1.0
  6
BYLAYER
 10
1.5306991789547197
 20
231.9005998079994413
 30
0.0
 11
1.5306991789547197
 21
231.9005998079994413
 31
0.0
  0
CIRCLE
  5
68
100
AcDbEntity
100
AcDbCircle
  8
0
 62
256
370
-1
 48
1.0
  6
BYLAYER
 10
114.0854254817677003
 20
250.5773085705128267
 30
0.0
 40
1.375
  0
CIRCLE
  5
69
100
AcDbEntity
100
AcDbCircle
  8
0
 62
256
370
-1
 48
1.0
  6
BYLAYER
 10
105.9360317321238796
 20
80.9813629482776776
 30
0.0
 40
1.375
  0
CIRCLE
  5
6A
100
AcDbEntity
100
AcDbCircle
  8
0
 62
256
370
-1
 48
1.0
  6
BYLAYER
 10
106.0000000000000142
 20
118.5
 30
0.0
 40
1.375
  0
CIRCLE
  5
6B
100
AcDbEntity
100
AcDbCircle
  8
0
 62
256
370
-1
 48
1.0
  6
BYLAYER
 10
105.7056676785270071
 20
44.3534784263759718
 30
0.0
 40
1.375
  0
CIRCLE
  5
6C
100
AcDbEntity
100
AcDbCircle
  8
0
 62
256
370
-1
 48
1.0
  6
BYLAYER
 10
106.0000000000000142
 20
8.5
 30
0.0
 40
1.375
  0
CIRCLE
  5
6D
100
AcDbEntity
100
AcDbCircle
  8
0
 62
256
370
-1
 48
1.0
  6
BYLAYER
 10
196.4999999999998863
 20
104.5
 30
0.0
 40
1.375
  0
CIRCLE
  5
6E
100
AcDbEntity
100
AcDbCircle
  8
0
 62
256
370
-1
 48
1.0
  6
BYLAYER
 10
153.5606097061267405
 20
249.9138600961537975
 30
0.0
 40
1.375
  0
CIRCLE
  5
6F
100
AcDbEntity
100
AcDbCircle
  8
0
 62
256
370
-1
 48
1.0
  6
BYLAYER
 10
196.486656284615151
 20
248.6040115238118631
 30
0.0
 40
1.375
  0
CIRCLE
  5
70
100
AcDbEntity
100
AcDbCircle
  8
0
 62
256
370
-1
 48
1.0
  6
BYLAYER
 10
48.0000000000000142
 20
8.5
 30
0.0
 40
1.375
  0
CIRCLE
  5
71
100
AcDbEntity
100
AcDbCircle
  8
0
 62
256
370
-1
 48
1.0
  6
BYLAYER
 10
196.5
 20
46.4999999999999858
 30
0.0
 40
1.375
  0
CIRCLE
  5
72
100
AcDbEntity
100
AcDbCircle
  8
0
 62
256
370
-1
 48
1.0
  6
BYLAYER
 10
153.5606097061268542
 20
191.9138600961537975
 30
0.0
 40
1.375
  0
CIRCLE
  5
73
100
AcDbEntity
100
AcDbCircle
  8
0
 62
256
370
-1
 48
1.0
  6
BYLAYER
 10
196.4866562846152647
 20
190.6040115238118346
 30
0.0
 40
1.375
  0
CIRCLE
  5
74
100
AcDbEntity
100
AcDbCircle
  8
0
 62
256
370
-1
 48
1.0
  6
BYLAYER
 10
114.0854254817678139
 20
192.5773085705128267
 30
0.0
 40
1.375
  0
CIRCLE
  5
75
100
AcDbEntity
100
AcDbCircle
  8
0
 62
256
370
-1
 48
1.0
  6
BYLAYER
 10
47.9360317321238796
 20
80.9813629482776776
 30
0.0
 40
1.375
  0
CIRCLE
  5
76
100
AcDbEntity
100
AcDbCircle
  8
0
 62
256
370
-1
 48
1.0
  6
BYLAYER
 10
48.0000000000000142
 20
118.5
 30
0.0
 40
1.375
  0
CIRCLE
  5
77
100
AcDbEntity
100
AcDbCircle
  8
0
 62
256
370
-1
 48
1.0
  6
BYLAYER
 10
47.7056676785270071
 20
44.3534784263759718
 30
0.0
 40
1.375
  0
ARC
  5
78
100
AcDbEntity
  8
0
 62
256
370
-1
 48
1.0
  6
BYLAYER
100
AcDbCircle
 10
141.25
 20
9.5
 30
0.0
 40
1.0
100
AcDbArc
 50
270.0
 51
90.0
  0
ARC
  5
79
100
AcDbEntity
  8
0
 62
256
370
-1
 48
1.0
  6
BYLAYER
100
AcDbCircle
 10
195.5000000000002274
 20
139.75
 30
0.0
 40
1.0
100
AcDbArc
 50
0.0
 51
180.0
  0
ARC
  5
7A
100
AcDbEntity
  8
0
 62
256
370
-1
 48
1.0
  6
BYLAYER
100
AcDbCircle
 10
152.5606097061270816
 20
285.1638600961538259
 30
0.0
 40
1.0
100
AcDbArc
 50
0.0
 51
180.0
  0
ARC
  5
7B
100
AcDbEntity
  8
0
 62
256
370
-1
 48
1.0
  6
BYLAYER
100
AcDbCircle
 10
195.486656284615492
 20
283.8540115238118915
 30
0.0
 40
1.0
100
AcDbArc
 50
0.0
 51
180.0
  0
ARC
  5
7C
100
AcDbEntity
  8
0
 62
256
370
-1
 48
1.0
  6
BYLAYER
100
AcDbCircle
 10
113.0854254817680413
 20
285.8273085705128551
 30
0.0
 40
1.0
100
AcDbArc
 50
0.0
 51
180.0
  0
ARC
  5
7D
100
AcDbEntity
  8
0
 62
256
370
-1
 48
1.0
  6
BYLAYER
100
AcDbCircle
 10
141.1860317321238654
 20
81.9813629482776776
 30
0.0
 40
1.0
100
AcDbArc
 50
270.0
 51
90.0
  0
ARC
  5
7E
100
AcDbEntity
  8
0
 62
256
370
-1
 48
1.0
  6
BYLAYER
100
AcDbCircle
 10
140.9556676785269929
 20
45.3534784263759718
 30
0.0
 40
1.0
100
AcDbArc
 50
270.0
 51
90.0
  0
ARC
  5
7F
100
AcDbEntity
  8
0
 62
256
370
-1
 48
1.0
  6
BYLAYER
100
AcDbCircle
 10
141.25
 20
119.5
 30
0.0
 40
1.0
100
AcDbArc
 50
270.0
 51
90.0
  0
ARC
  5
80
100
AcDbEntity
  8
0
 62
256
370
-1
 48
1.0
  6
BYLAYER
100
AcDbCircle
 10
139.2056676785269929
 20
45.3534784263759718
 30
0.0
 40
1.0
100
AcDbArc
 50
90.0
 51
270.0
  0
ARC
  5
81
100
AcDbEntity
  8
0
 62
256
370
-1
 48
1.0
  6
BYLAYER
100
AcDbCircle
 10
139.5
 20
119.5
 30
0.0
 40
1.0
100
AcDbArc
 50
90.0
 51
270.0
  0
ARC
  5
82
100
AcDbEntity
  8
0
 62
256
370
-1
 48
1.0
  6
BYLAYER
100
AcDbCircle
 10
139.5
 20
9.5
 30
0.0
 40
1.0
100
AcDbArc
 50
90.0
 51
270.0
  0
ARC
  5
83
100
AcDbEntity
  8
0
 62
256
370
-1
 48
1.0
  6
BYLAYER
100
AcDbCircle
 10
195.4999999999996589
 20
138.0
 30
0.0
 40
1.0
100
AcDbArc
 50
180.0
 51
0.0
  0
ARC
  5
84
100
AcDbEntity
  8
0
 62
256
370
-1
 48
1.0
  6
BYLAYER
100
AcDbCircle
 10
152.5606097061265132
 20
283.4138600961538259
 30
0.0
 40
1.0
100
AcDbArc
 50
180.0
 51
0.0
  0
ARC
  5
85
100
AcDbEntity
  8
0
 62
256
370
-1
 48
1.0
  6
BYLAYER
100
AcDbCircle
 10
195.4866562846149236
 20
282.1040115238118915
 30
0.0
 40
1.0
100
AcDbArc
 50
180.0
 51
0.0
  0
ARC
  5
86
100
AcDbEntity
  8
0
 62
256
370
-1
 48
1.0
  6
BYLAYER
100
AcDbCircle
 10
113.0854254817674729
 20
284.0773085705128551
 30
0.0
 40
1.0
100
AcDbArc
 50
180.0
 51
0.0
  0
ARC
  5
87
100
AcDbEntity
  8
0
 62
256
370
-1
 48
1.0
  6
BYLAYER
100
AcDbCircle
 10
139.4360317321238654
 20
81.9813629482776776
 30
0.0
 40
1.0
100
AcDbArc
 50
90.0
 51
270.0
  0
CIRCLE
  5
88
100
AcDbEntity
100
AcDbCircle
  8
0
 62
256
370
-1
 48
1.0
  6
BYLAYER
 10
106.0000000000000142
 20
31.5000000000000568
 30
0.0
 40
1.375
  0
CIRCLE
  5
89
100
AcDbEntity
100
AcDbCircle
  8
0
 62
256
370
-1
 48
1.0
  6
BYLAYER
 10
173.4999999999998863
 20
104.5
 30
0.0
 40
1.375
  0
CIRCLE
  5
8A
100
AcDbEntity
100
AcDbCircle
  8
0
 62
256
370
-1
 48
1.0
  6
BYLAYER
 10
130.5606097061267405
 20
249.9138600961537975
 30
0.0
 40
1.375
  0
CIRCLE
  5
8B
100
AcDbEntity
100
AcDbCircle
  8
0
 62
256
370
-1
 48
1.0
  6
BYLAYER
 10
173.486656284615151
 20
248.6040115238118631
 30
0.0
 40
1.375
  0
CIRCLE
  5
8C
100
AcDbEntity
100
AcDbCircle
  8
0
 62
256
370
-1
 48
1.0
  6
BYLAYER
 10
91.0854254817677003
 20
250.5773085705128267
 30
0.0
 40
1.375
  0
CIRCLE
  5
8D
100
AcDbEntity
100
AcDbCircle
  8
0
 62
256
370
-1
 48
1.0
  6
BYLAYER
 10
105.9360317321238796
 20
103.9813629482777344
 30
0.0
 40
1.375
  0
CIRCLE
  5
8E
100
AcDbEntity
100
AcDbCircle
  8
0
 62
256
370
-1
 48
1.0
  6
BYLAYER
 10
105.7056676785270071
 20
67.3534784263760287
 30
0.0
 40
1.375
  0
CIRCLE
  5
8F
100
AcDbEntity
100
AcDbCircle
  8
0
 62
256
370
-1
 48
1.0
  6
BYLAYER
 10
106.0000000000000142
 20
141.5000000000000568
 30
0.0
 40
1.375
  0
CIRCLE
  5
90
100
AcDbEntity
100
AcDbCircle
  8
0
 62
256
370
-1
 48
1.0
  6
BYLAYER
 10
127.0000000000000142
 20
9.5
 30
0.0
 40
1.0
  0
CIRCLE
  5
91
100
AcDbEntity
100
AcDbCircle
  8
0
 62
256
370
-1
 48
1.0
  6
BYLAYER
 10
195.5
 20
125.5
 30
0.0
 40
1.0
  0
CIRCLE
  5
92
100
AcDbEntity
100
AcDbCircle
  8
0
 62
256
370
-1
 48
1.0
  6
BYLAYER
 10
152.5606097061268542
 20
270.9138600961538259
 30
0.0
 40
1.0
  0
CIRCLE
  5
93
100
AcDbEntity
100
AcDbCircle
  8
0
 62
256
370
-1
 48
1.0
  6
BYLAYER
 10
195.4866562846152647
 20
269.6040115238118915
 30
0.0
 40
1.0
  0
CIRCLE
  5
94
100
AcDbEntity
100
AcDbCircle
  8
0
 62
256
370
-1
 48
1.0
  6
BYLAYER
 10
113.0854254817678139
 20
271.5773085705128551
 30
0.0
 40
1.0
  0
CIRCLE
  5
95
100
AcDbEntity
100
AcDbCircle
  8
0
 62
256
370
-1
 48
1.0
  6
BYLAYER
 10
126.9360317321238796
 20
81.9813629482776776
 30
0.0
 40
1.0
  0
CIRCLE
  5
96
100
AcDbEntity
100
AcDbCircle
  8
0
 62
256
370
-1
 48
1.0
  6
BYLAYER
 10
126.7056676785270071
 20
45.3534784263759718
 30
0.0
 40
1.0
  0
CIRCLE
  5
97
100
AcDbEntity
100
AcDbCircle
  8
0
 62
256
370
-1
 48
1.0
  6
BYLAYER
 10
127.0000000000000142
 20
119.5
 30
0.0
 40
1.0
  0
ARC
  5
98
100
AcDbEntity
  8
0
 62
256
370
-1
 48
1.0
  6
BYLAYER
100
AcDbCircle
 10
131.5606097061268542
 20
283.4138600961538259
 30
0.0
 40
1.0
100
AcDbArc
 50
180.0
 51
5.0006445975589457
  0
ARC
  5
99
100
AcDbEntity
  8
0
 62
256
370
-1
 48
1.0
  6
BYLAYER
100
AcDbCircle
 10
174.5
 20
138.0
 30
0.0
 40
1.0
100
AcDbArc
 50
180.0
 51
5.0006445975589457
  0
ARC
  5
9A
100
AcDbEntity
  8
0
 62
256
370
-1
 48
1.0
  6
BYLAYER
100
AcDbCircle
 10
174.4866562846152647
 20
282.1040115238118915
 30
0.0
 40
1.0
100
AcDbArc
 50
180.0
 51
5.0006445975589457
  0
ARC
  5
9B
100
AcDbEntity
  8
0
 62
256
370
-1
 48
1.0
  6
BYLAYER
100
AcDbCircle
 10
92.0854254817678139
 20
284.0773085705128551
 30
0.0
 40
1.0
100
AcDbArc
 50
180.0
 51
5.0006445975589457
  0
ARC
  5
9C
100
AcDbEntity
  8
0
 62
256
370
-1
 48
1.0
  6
BYLAYER
100
AcDbCircle
 10
139.4360317321238654
 20
102.9813629482776776
 30
0.0
 40
1.0
100
AcDbArc
 50
90.0
 51
275.00064459755896
  0
ARC
  5
9D
100
AcDbEntity
  8
0
 62
256
370
-1
 48
1.0
  6
BYLAYER
100
AcDbCircle
 10
139.2056676785269929
 20
66.3534784263759718
 30
0.0
 40
1.0
100
AcDbArc
 50
90.0
 51
275.00064459755896
  0
ARC
  5
9E
100
AcDbEntity
  8
0
 62
256
370
-1
 48
1.0
  6
BYLAYER
100
AcDbCircle
 10
139.5
 20
140.5
 30
0.0
 40
1.0
100
AcDbArc
 50
90.0
 51
275.00064459755896
  0
ARC
  5
9F
100
AcDbEntity
  8
0
 62
256
370
-1
 48
1.0
  6
BYLAYER
100
AcDbCircle
 10
139.5
 20
30.5
 30
0.0
 40
1.0
100
AcDbArc
 50
90.0
 51
275.00064459755896
  0
ARC
  5
A0
100
AcDbEntity
  8
0
 62
256
370
-1
 48
1.0
  6
BYLAYER
100
AcDbCircle
 10
131.5606097061268542
 20
285.1638600961538259
 30
0.0
 40
1.0
100
AcDbArc
 50
359.8687578082351024
 51
180.0
  0
ARC
  5
A1
100
AcDbEntity
  8
0
 62
256
370
-1
 48
1.0
  6
BYLAYER
100
AcDbCircle
 10
174.5
 20
139.75
 30
0.0
 40
1.0
100
AcDbArc
 50
359.8687578082351024
 51
180.0
  0
ARC
  5
A2
100
AcDbEntity
  8
0
 62
256
370
-1
 48
1.0
  6
BYLAYER
100
AcDbCircle
 10
174.4866562846152647
 20
283.8540115238118915
 30
0.0
 40
1.0
100
AcDbArc
 50
359.8687578082351024
 51
180.0
  0
ARC
  5
A3
100
AcDbEntity
  8
0
 62
256
370
-1
 48
1.0
  6
BYLAYER
100
AcDbCircle
 10
92.0854254817678139
 20
285.8273085705128551
 30
0.0
 40
1.0
100
AcDbArc
 50
359.8687578082351024
 51
180.0
  0
ARC
  5
A4
100
AcDbEntity
  8
0
 62
256
370
-1
 48
1.0
  6
BYLAYER
100
AcDbCircle
 10
141.1860317321238654
 20
102.9813629482776776
 30
0.0
 40
1.0
100
AcDbArc
 50
269.8687578082351024
 51
90.0
  0
ARC
  5
A5
100
AcDbEntity
  8
0
 62
256
370
-1
 48
1.0
  6
BYLAYER
100
AcDbCircle
 10
140.9556676785269929
 20
66.3534784263759718
 30
0.0
 40
1.0
100
AcDbArc
 50
269.8687578082351024
 51
90.0
  0
ARC
  5
A6
100
AcDbEntity
  8
0
 62
256
370
-1
 48
1.0
  6
BYLAYER
100
AcDbCircle
 10
141.25
 20
140.5
 30
0.0
 40
1.0
100
AcDbArc
 50
269.8687578082351024
 51
90.0
  0
ARC
  5
A7
100
AcDbEntity
  8
0
 62
256
370
-1
 48
1.0
  6
BYLAYER
100
AcDbCircle
 10
141.25
 20
30.5
 30
0.0
 40
1.0
100
AcDbArc
 50
269.8687578082351024
 51
90.0
  0
CIRCLE
  5
A8
100
AcDbEntity
100
AcDbCircle
  8
0
 62
256
370
-1
 48
1.0
  6
BYLAYER
 10
47.9360317321238796
 20
103.9813629482776776
 30
0.0
 40
1.375
  0
CIRCLE
  5
A9
100
AcDbEntity
100
AcDbCircle
  8
0
 62
256
370
-1
 48
1.0
  6
BYLAYER
 10
47.7056676785270071
 20
67.3534784263759718
 30
0.0
 40
1.375
  0
CIRCLE
  5
AA
100
AcDbEntity
100
AcDbCircle
  8
0
 62
256
370
-1
 48
1.0
  6
BYLAYER
 10
48.0000000000000142
 20
141.5
 30
0.0
 40
1.375
  0
CIRCLE
  5
AB
100
AcDbEntity
100
AcDbCircle
  8
0
 62
256
370
-1
 48
1.0
  6
BYLAYER
 10
48.0000000000000142
 20
31.5
 30
0.0
 40
1.375
  0
CIRCLE
  5
AC
100
AcDbEntity
100
AcDbCircle
  8
0
 62
256
370
-1
 48
1.0
  6
BYLAYER
 10
130.5606097061268542
 20
191.9138600961537975
 30
0.0
 40
1.375
  0
CIRCLE
  5
AD
100
AcDbEntity
100
AcDbCircle
  8
0
 62
256
370
-1
 48
1.0
  6
BYLAYER
 10
173.5
 20
46.4999999999999858
 30
0.0
 40
1.375
  0
CIRCLE
  5
AE
100
AcDbEntity
100
AcDbCircle
  8
0
 62
256
370
-1
 48
1.0
  6
BYLAYER
 10
173.4866562846152647
 20
190.6040115238118346
 30
0.0
 40
1.375
  0
CIRCLE
  5
AF
100
AcDbEntity
100
AcDbCircle
  8
0
 62
256
370
-1
 48
1.0
  6
BYLAYER
 10
91.0854254817678139
 20
192.5773085705128267
 30
0.0
 40
1.375
  0
CIRCLE
  5
B0
100
AcDbEntity
100
AcDbCircle
  8
0
 62
256
370
-1
 48
1.0
  6
BYLAYER
 10
131.5606097061267405
 20
270.9138600961538259
 30
0.0
 40
1.0
  0
CIRCLE
  5
B1
100
AcDbEntity
100
AcDbCircle
  8
0
 62
256
370
-1
 48
1.0
  6
BYLAYER
 10
174.4999999999998863
 20
125.5
 30
0.0
 40
1.0
  0
CIRCLE
  5
B2
100
AcDbEntity
100
AcDbCircle
  8
0
 62
256
370
-1
 48
1.0
  6
BYLAYER
 10
174.486656284615151
 20
269.6040115238118915
 30
0.0
 40
1.0
  0
CIRCLE
  5
B3
100
AcDbEntity
100
AcDbCircle
  8
0
 62
256
370
-1
 48
1.0
  6
BYLAYER
 10
92.0854254817677003
 20
271.5773085705128551
 30
0.0
 40
1.0
  0
CIRCLE
  5
B4
100
AcDbEntity
100
AcDbCircle
  8
0
 62
256
370
-1
 48
1.0
  6
BYLAYER
 10
126.9360317321238796
 20
102.9813629482776776
 30
0.0
 40
1.0
  0
CIRCLE
  5
B5
100
AcDbEntity
100
AcDbCircle
  8
0
 62
256
370
-1
 48
1.0
  6
BYLAYER
 10
126.7056676785270071
 20
66.3534784263759718
 30
0.0
 40
1.0
  0
CIRCLE
  5
B6
100
AcDbEntity
100
AcDbCircle
  8
0
 62
256
370
-1
 48
1.0
  6
BYLAYER
 10
127.0000000000000142
 20
140.5
 30
0.0
 40
1.0
  0
CIRCLE
  5
B7
100
AcDbEntity
100
AcDbCircle
  8
0
 62
256
370
-1
 48
1.0
  6
BYLAYER
 10
127.0000000000000142
 20
30.5
 30
0.0
 40
1.0
  0
LINE
  5
B8
100
AcDbEntity
100
AcDbLine
  8
0
 62
256
370
-1
 48
1.0
  6
BYLAYER
 10
153.5606097061267405
 20
283.4138600961538259
 30
0.0
 11
153.5606097061268542
 21
285.1638600961538259
 31
0.0
  0
LINE
  5
B9
100
AcDbEntity
100
AcDbLine
  8
0
 62
256
370
-1
 48
1.0
  6
BYLAYER
 10
196.4999999999998863
 20
138.0
 30
0.0
 11
196.5
 21
139.7499999999999432
 31
0.0
  0
LINE
  5
BA
100
AcDbEntity
100
AcDbLine
  8
0
 62
256
370
-1
 48
1.0
  6
BYLAYER
 10
196.486656284615151
 20
282.1040115238118915
 30
0.0
 11
196.4866562846152647
 21
283.8540115238117778
 31
0.0
  0
LINE
  5
BB
100
AcDbEntity
100
AcDbLine
  8
0
 62
256
370
-1
 48
1.0
  6
BYLAYER
 10
114.0854254817677003
 20
284.0773085705128551
 30
0.0
 11
114.0854254817678139
 21
285.8273085705127414
 31
0.0
  0
LINE
  5
BC
100
AcDbEntity
100
AcDbLine
  8
0
 62
256
370
-1
 48
1.0
  6
BYLAYER
 10
139.4360317321238654
 20
80.9813629482776776
 30
0.0
 11
141.1860317321238654
 21
80.9813629482776776
 31
0.0
  0
LINE
  5
BD
100
AcDbEntity
100
AcDbLine
  8
0
 62
256
370
-1
 48
1.0
  6
BYLAYER
 10
139.2056676785269929
 20
44.3534784263759718
 30
0.0
 11
140.9556676785269929
 21
44.3534784263759576
 31
0.0
  0
LINE
  5
BE
100
AcDbEntity
100
AcDbLine
  8
0
 62
256
370
-1
 48
1.0
  6
BYLAYER
 10
139.5
 20
118.5
 30
0.0
 11
141.25
 21
118.5
 31
0.0
  0
LINE
  5
BF
100
AcDbEntity
100
AcDbLine
  8
0
 62
256
370
-1
 48
1.0
  6
BYLAYER
 10
139.5
 20
8.5
 30
0.0
 11
141.25
 21
8.5
 31
0.0
  0
LINE
  5
C0
100
AcDbEntity
100
AcDbLine
  8
0
 62
256
370
-1
 48
1.0
  6
BYLAYER
 10
151.5606097061270816
 20
283.4138600961538259
 30
0.0
 11
151.5606097061265132
 21
285.1638600961538259
 31
0.0
  0
LINE
  5
C1
100
AcDbEntity
100
AcDbLine
  8
0
 62
256
370
-1
 48
1.0
  6
BYLAYER
 10
194.5000000000002274
 20
138.0
 30
0.0
 11
194.4999999999996589
 21
139.75
 31
0.0
  0
LINE
  5
C2
100
AcDbEntity
100
AcDbLine
  8
0
 62
256
370
-1
 48
1.0
  6
BYLAYER
 10
194.486656284615492
 20
282.1040115238118915
 30
0.0
 11
194.4866562846149236
 21
283.8540115238118915
 31
0.0
  0
LINE
  5
C3
100
AcDbEntity
100
AcDbLine
  8
0
 62
256
370
-1
 48
1.0
  6
BYLAYER
 10
112.0854254817680413
 20
284.0773085705128551
 30
0.0
 11
112.0854254817674729
 21
285.8273085705128551
 31
0.0
  0
LINE
  5
C4
100
AcDbEntity
100
AcDbLine
  8
0
 62
256
370
-1
 48
1.0
  6
BYLAYER
 10
139.4360317321238654
 20
82.9813629482776776
 30
0.0
 11
141.1860317321238654
 21
82.9813629482776776
 31
0.0
  0
LINE
  5
C5
100
AcDbEntity
100
AcDbLine
  8
0
 62
256
370
-1
 48
1.0
  6
BYLAYER
 10
139.2056676785269929
 20
46.3534784263759576
 30
0.0
 11
140.9556676785269929
 21
46.3534784263759718
 31
0.0
  0
LINE
  5
C6
100
AcDbEntity
100
AcDbLine
  8
0
 62
256
370
-1
 48
1.0
  6
BYLAYER
 10
139.5
 20
120.5
 30
0.0
 11
141.25
 21
120.5
 31
0.0
  0
LINE
  5
C7
100
AcDbEntity
100
AcDbLine
  8
0
 62
256
370
-1
 48
1.0
  6
BYLAYER
 10
139.5
 20
10.5
 30
0.0
 11
141.25
 21
10.5
 31
0.0
  0
LINE
  5
C8
100
AcDbEntity
100
AcDbLine
  8
0
 62
256
370
-1
 48
1.0
  6
BYLAYER
 10
132.5568034236229664
 20
283.5010270464347286
 30
0.0
 11
132.5606070826846121
 21
285.1615694897931235
 31
0.0
  0
LINE
  5
C9
100
AcDbEntity
100
AcDbLine
  8
0
 62
256
370
-1
 48
1.0
  6
BYLAYER
 10
175.4961937174961122
 20
138.0871669502809027
 30
0.0
 11
175.4999973765577579
 21
139.7477093936392407
 31
0.0
  0
LINE
  5
CA
100
AcDbEntity
100
AcDbLine
  8
0
 62
256
370
-1
 48
1.0
  6
BYLAYER
 10
175.4828500021113769
 20
282.1911784740927942
 30
0.0
 11
175.4866536611730226
 21
283.8517209174510754
 31
0.0
  0
LINE
  5
CB
100
AcDbEntity
100
AcDbLine
  8
0
 62
256
370
-1
 48
1.0
  6
BYLAYER
 10
93.0816191992639261
 20
284.1644755207937578
 30
0.0
 11
93.0854228583255718
 21
285.825017964152039
 31
0.0
  0
LINE
  5
CC
100
AcDbEntity
100
AcDbLine
  8
0
 62
256
370
-1
 48
1.0
  6
BYLAYER
 10
139.5231986824047681
 20
101.9851692307815654
 30
0.0
 11
141.1837411257631629
 21
101.9813655717198628
 31
0.0
  0
LINE
  5
CD
100
AcDbEntity
100
AcDbLine
  8
0
 62
256
370
-1
 48
1.0
  6
BYLAYER
 10
139.2928346288078956
 20
65.3572847088798596
 30
0.0
 11
140.9533770721662904
 21
65.3534810498181571
 31
0.0
  0
LINE
  5
CE
100
AcDbEntity
100
AcDbLine
  8
0
 62
256
370
-1
 48
1.0
  6
BYLAYER
 10
139.5871669502809027
 20
139.5038062825038878
 30
0.0
 11
141.2477093936392976
 21
139.5000026234421853
 31
0.0
  0
LINE
  5
CF
100
AcDbEntity
100
AcDbLine
  8
0
 62
256
370
-1
 48
1.0
  6
BYLAYER
 10
139.5871669502809027
 20
29.5038062825038878
 30
0.0
 11
141.2477093936392976
 21
29.5000026234421711
 31
0.0
  0
LINE
  5
D0
100
AcDbEntity
100
AcDbLine
  8
0
 62
256
370
-1
 48
1.0
  6
BYLAYER
 10
130.5606097061268542
 20
283.4138600961538259
 30
0.0
 11
130.5606097061268542
 21
285.1638600961538259
 31
0.0
  0
LINE
  5
D1
100
AcDbEntity
100
AcDbLine
  8
0
 62
256
370
-1
 48
1.0
  6
BYLAYER
 10
173.5
 20
138.0
 30
0.0
 11
173.5
 21
139.75
 31
0.0
  0
LINE
  5
D2
100
AcDbEntity
100
AcDbLine
  8
0
 62
256
370
-1
 48
1.0
  6
BYLAYER
 10
173.4866562846152647
 20
282.1040115238118915
 30
0.0
 11
173.4866562846152647
 21
283.8540115238118915
 31
0.0
  0
LINE
  5
D3
100
AcDbEntity
100
AcDbLine
  8
0
 62
256
370
-1
 48
1.0
  6
BYLAYER
 10
91.0854254817678139
 20
284.0773085705128551
 30
0.0
 11
91.0854254817678139
 21
285.8273085705128551
 31
0.0
  0
LINE
  5
D4
100
AcDbEntity
100
AcDbLine
  8
0
 62
256
370
-1
 48
1.0
  6
BYLAYER
 10
139.4360317321238654
 20
103.9813629482776776
 30
0.0
 11
141.1860317321238654
 21
103.9813629482776776
 31
0.0
  0
LINE
  5
D5
100
AcDbEntity
100
AcDbLine
  8
0
 62
256
370
-1
 48
1.0
  6
BYLAYER
 10
139.2056676785269929
 20
67.3534784263759718
 30
0.0
 11
140.9556676785269929
 21
67.3534784263759718
 31
0.0
  0
LINE
  5
D6
100
AcDbEntity
100
AcDbLine
  8
0
 62
256
370
-1
 48
1.0
  6
BYLAYER
 10
139.5
 20
141.5
 30
0.0
 11
141.25
 21
141.5
 31
0.0
  0
LINE
  5
D7
100
AcDbEntity
100
AcDbLine
  8
0
 62
256
370
-1
 48
1.0
  6
BYLAYER
 10
139.5
 20
31.5
 30
0.0
 11
141.25
 21
31.5
 31
0.0
  0
LINE
  5
D8
100
AcDbEntity
100
AcDbLine
  8
0
 62
256
370
-1
 48
1.0
  6
BYLAYER
 10
0.0000000000000142
 20
0.0
 30
0.0
 11
210.0
 21
0.0
 31
0.0
  0
LINE
  5
D9
100
AcDbEntity
100
AcDbLine
  8
0
 62
256
370
-1
 48
1.0
  6
BYLAYER
 10
210.0
 20
0.0
 30
0.0
 11
210.0
 21
297.0
 31
0.0
  0
LINE
  5
DA
100
AcDbEntity
100
AcDbLine
  8
0
 62
256
370
-1
 48
1.0
  6
BYLAYER
 10
210.0
 20
297.0
 30
0.0
 11
0.0000000000000142
 21
297.0
 31
0.0
  0
LINE
  5
DB
100
AcDbEntity
100
AcDbLine
  8
0
 62
256
370
-1
 48
1.0
  6
BYLAYER
 10
0.0000000000000142
 20
297.0
 30
0.0
 11
0.0000000000000142
 21
0.0
 31
0.0
  0
LINE
  5
DC
100
AcDbEntity
100
AcDbLine
  8
0
 62
256
370
-1
 48
1.0
  6
BYLAYER
 10
158.0606097061268542
 20
153.9138600961538259
 30
0.0
 11
158.0606097061268542
 21
252.9138600961537975
 31
0.0
  0
LINE
  5
DD
100
AcDbEntity
100
AcDbLine
  8
0
 62
256
370
-1
 48
1.0
  6
BYLAYER
 10
201.0
 20
8.5
 30
0.0
 11
201.0
 21
107.5
 31
0.0
  0
LINE
  5
DE
100
AcDbEntity
100
AcDbLine
  8
0
 62
256
370
-1
 48
1.0
  6
BYLAYER
 10
200.9866562846152647
 20
152.6040115238118346
 30
0.0
 11
200.9866562846152647
 21
251.6040115238118631
 31
0.0
  0
LINE
  5
DF
100
AcDbEntity
100
AcDbLine
  8
0
 62
256
370
-1
 48
1.0
  6
BYLAYER
 10
118.5854254817678139
 20
154.5773085705127983
 30
0.0
 11
118.5854254817678139
 21
253.5773085705128267
 31
0.0
  0
LINE
  5
E0
100
AcDbEntity
100
AcDbLine
  8
0
 62
256
370
-1
 48
1.0
  6
BYLAYER
 10
9.936031732123908
 20
76.4813629482776776
 30
0.0
 11
108.9360317321238796
 21
76.4813629482776776
 31
0.0
  0
LINE
  5
E1
100
AcDbEntity
100
AcDbLine
  8
0
 62
256
370
-1
 48
1.0
  6
BYLAYER
 10
9.7056676785270355
 20
39.8534784263759718
 30
0.0
 11
108.7056676785270071
 21
39.8534784263759718
 31
0.0
  0
LINE
  5
E2
100
AcDbEntity
100
AcDbLine
  8
0
 62
256
370
-1
 48
1.0
  6
BYLAYER
 10
10.0000000000000142
 20
114.0
 30
0.0
 11
109.0000000000000142
 21
114.0
 31
0.0
  0
LINE
  5
E3
100
AcDbEntity
100
AcDbLine
  8
0
 62
256
370
-1
 48
1.0
  6
BYLAYER
 10
10.0000000000000142
 20
4.0
 30
0.0
 11
109.0000000000000142
 21
4.0
 31
0.0
  0
LINE
  5
E4
100
AcDbEntity
100
AcDbLine
  8
0
 62
256
370
-1
 48
1.0
  6
BYLAYER
 10
126.0606097061268684
 20
153.9138600961538259
 30
0.0
 11
126.0606097061268684
 21
252.9138600961537975
 31
0.0
  0
LINE
  5
E5
100
AcDbEntity
100
AcDbLine
  8
0
 62
256
370
-1
 48
1.0
  6
BYLAYER
 10
169.0
 20
8.5
 30
0.0
 11
169.0
 21
107.5
 31
0.0
  0
LINE
  5
E6
100
AcDbEntity
100
AcDbLine
  8
0
 62
256
370
-1
 48
1.0
  6
BYLAYER
 10
168.9866562846152647
 20
152.6040115238118346
 30
0.0
 11
168.9866562846152647
 21
251.6040115238118631
 31
0.0
  0
LINE
  5
E7
100
AcDbEntity
100
AcDbLine
  8
0
 62
256
370
-1
 48
1.0
  6
BYLAYER
 10
86.5854254817678139
 20
154.5773085705127983
 30
0.0
 11
86.5854254817678139
 21
253.5773085705128267
 31
0.0
  0
LINE
  5
E8
100
AcDbEntity
100
AcDbLine
  8
0
 62
256
370
-1
 48
1.0
  6
BYLAYER
 10
9.936031732123908
 20
108.4813629482776776
 30
0.0
 11
108.9360317321238796
 21
108.4813629482776776
 31
0.0
  0
LINE
  5
E9
100
AcDbEntity
100
AcDbLine
  8
0
 62
256
370
-1
 48
1.0
  6
BYLAYER
 10
9.7056676785270355
 20
71.8534784263759718
 30
0.0
 11
108.7056676785270071
 21
71.8534784263759718
 31
0.0
  0
LINE
  5
EA
100
AcDbEntity
100
AcDbLine
  8
0
 62
256
370
-1
 48
1.0
  6
BYLAYER
 10
10.0000000000000142
 20
146.0
 30
0.0
 11
109.0000000000000142
 21
146.0
 31
0.0
  0
LINE
  5
EB
100
AcDbEntity
100
AcDbLine
  8
0
 62
256
370
-1
 48
1.0
  6
BYLAYER
 10
10.0000000000000142
 20
36.0
 30
0.0
 11
109.0000000000000142
 21
36.0
 31
0.0
  0
LINE
  5
EC
100
AcDbEntity
100
AcDbLine
  8
0
 62
256
370
-1
 48
1.0
  6
BYLAYER
 10
132.0606097061268542
 20
293.9138600961538259
 30
0.0
 11
152.0606097061269679
 21
293.9138600961538259
 31
0.0
  0
LINE
  5
ED
100
AcDbEntity
100
AcDbLine
  8
0
 62
256
370
-1
 48
1.0
  6
BYLAYER
 10
175.0
 20
148.5
 30
0.0
 11
195.0000000000001137
 21
148.5
 31
0.0
  0
LINE
  5
EE
100
AcDbEntity
100
AcDbLine
  8
0
 62
256
370
-1
 48
1.0
  6
BYLAYER
 10
174.9866562846152647
 20
292.6040115238118915
 30
0.0
 11
194.9866562846153784
 21
292.6040115238118915
 31
0.0
  0
LINE
  5
EF
100
AcDbEntity
100
AcDbLine
  8
0
 62
256
370
-1
 48
1.0
  6
BYLAYER
 10
92.5854254817678139
 20
294.5773085705128551
 30
0.0
 11
112.5854254817679276
 21
294.5773085705128551
 31
0.0
  0
LINE
  5
F0
100
AcDbEntity
100
AcDbLine
  8
0
 62
256
370
-1
 48
1.0
  6
BYLAYER
 10
149.9360317321238654
 20
102.4813629482776776
 30
0.0
 11
149.9360317321238654
 21
82.4813629482776776
 31
0.0
  0
LINE
  5
F1
100
AcDbEntity
100
AcDbLine
  8
0
 62
256
370
-1
 48
1.0
  6
BYLAYER
 10
149.7056676785269929
 20
65.8534784263759718
 30
0.0
 11
149.7056676785269929
 21
45.8534784263759718
 31
0.0
  0
LINE
  5
F2
100
AcDbEntity
100
AcDbLine
  8
0
 62
256
370
-1
 48
1.0
  6
BYLAYER
 10
150.0
 20
140.0
 30
0.0
 11
150.0
 21
120.0
 31
0.0
  0
LINE
  5
F3
100
AcDbEntity
100
AcDbLine
  8
0
 62
256
370
-1
 48
1.0
  6
BYLAYER
 10
150.0
 20
30.0
 30
0.0
 11
150.0
 21
10.0
 31
0.0
  0
LINE
  5
F4
100
AcDbEntity
100
AcDbLine
  8
0
 62
256
370
-1
 48
1.0
  6
BYLAYER
 10
148.0606097061268542
 20
153.9138600961538259
 30
0.0
 11
148.0606097061268542
 21
190.9138600961538259
 31
0.0
  0
LINE
  5
F5
100
AcDbEntity
100
AcDbLine
  8
0
 62
256
370
-1
 48
1.0
  6
BYLAYER
 10
191.0
 20
8.5
 30
0.0
 11
191.0
 21
45.4999999999999858
 31
0.0
  0
LINE
  5
F6
100
AcDbEntity
100
AcDbLine
  8
0
 62
256
370
-1
 48
1.0
  6
BYLAYER
 10
190.9866562846152647
 20
152.6040115238118346
 30
0.0
 11
190.9866562846152647
 21
189.6040115238118346
 31
0.0
  0
LINE
  5
F7
100
AcDbEntity
100
AcDbLine
  8
0
 62
256
370
-1
 48
1.0
  6
BYLAYER
 10
108.5854254817678139
 20
154.5773085705127983
 30
0.0
 11
108.5854254817678139
 21
191.5773085705128267
 31
0.0
  0
LINE
  5
F8
100
AcDbEntity
100
AcDbLine
  8
0
 62
256
370
-1
 48
1.0
  6
BYLAYER
 10
9.936031732123908
 20
86.4813629482776776
 30
0.0
 11
46.9360317321238796
 21
86.4813629482776776
 31
0.0
  0
LINE
  5
F9
100
AcDbEntity
100
AcDbLine
  8
0
 62
256
370
-1
 48
1.0
  6
BYLAYER
 10
9.7056676785270355
 20
49.8534784263759718
 30
0.0
 11
46.7056676785270071
 21
49.8534784263759718
 31
0.0
  0
LINE
  5
FA
100
AcDbEntity
100
AcDbLine
  8
0
 62
256
370
-1
 48
1.0
  6
BYLAYER
 10
10.0000000000000142
 20
124.0
 30
0.0
 11
47.0000000000000142
 21
124.0
 31
0.0
  0
LINE
  5
FB
100
AcDbEntity
100
AcDbLine
  8
0
 62
256
370
-1
 48
1.0
  6
BYLAYER
 10
10.0000000000000142
 20
14.0
 30
0.0
 11
47.0000000000000142
 21
14.0
 31
0.0
  0
LINE
  5
FC
100
AcDbEntity
100
AcDbLine
  8
0
 62
256
370
-1
 48
1.0
  6
BYLAYER
 10
49.7056676785270071
 20
52.8534784263759718
 30
0.0
 11
49.7056676785270071
 21
58.8534784263759718
 31
0.0
  0
LINE
  5
FD
100
AcDbEntity
100
AcDbLine
  8
0
 62
256
370
-1
 48
1.0
  6
BYLAYER
 10
50.0000000000000142
 20
127.0
 30
0.0
 11
50.0000000000000142
 21
133.0
 31
0.0
  0
LINE
  5
FE
100
AcDbEntity
100
AcDbLine
  8
0
 62
256
370
-1
 48
1.0
  6
BYLAYER
 10
50.0000000000000142
 20
17.0
 30
0.0
 11
50.0000000000000142
 21
23.0
 31
0.0
  0
LINE
  5
FF
100
AcDbEntity
100
AcDbLine
  8
0
 62
256
370
-1
 48
1.0
  6
BYLAYER
 10
145.0606097061268542
 20
193.9138600961537975
 30
0.0
 11
139.0606097061268542
 21
193.9138600961537975
 31
0.0
  0
LINE
  5
100
100
AcDbEntity
100
AcDbLine
  8
0
 62
256
370
-1
 48
1.0
  6
BYLAYER
 10
187.9866562846152647
 20
192.6040115238118631
 30
0.0
 11
181.9866562846152647
 21
192.6040115238118631
 31
0.0
  0
LINE
  5
101
100
AcDbEntity
100
AcDbLine
  8
0
 62
256
370
-1
 48
1.0
  6
BYLAYER
 10
105.5854254817678139
 20
194.5773085705128267
 30
0.0
 11
99.5854254817678139
 21
194.5773085705128267
 31
0.0
  0
LINE
  5
102
100
AcDbEntity
100
AcDbLine
  8
0
 62
256
370
-1
 48
1.0
  6
BYLAYER
 10
188.0
 20
48.4999999999999858
 30
0.0
 11
182.0
 21
48.4999999999999858
 31
0.0
  0
LINE
  5
103
100
AcDbEntity
100
AcDbLine
  8
0
 62
256
370
-1
 48
1.0
  6
BYLAYER
 10
49.9360317321238796
 20
89.4813629482776776
 30
0.0
 11
49.9360317321238796
 21
95.4813629482776776
 31
0.0
  0
LINE
  5
104
100
AcDbEntity
100
AcDbLine
  8
0
 62
256
370
-1
 48
1.0
  6
BYLAYER
 10
179.0
 20
45.4999999999999858
 30
0.0
 11
179.0
 21
8.5
 31
0.0
  0
LINE
  5
105
100
AcDbEntity
100
AcDbLine
  8
0
 62
256
370
-1
 48
1.0
  6
BYLAYER
 10
46.9360317321238796
 20
98.4813629482776776
 30
0.0
 11
9.936031732123908
 21
98.4813629482776776
 31
0.0
  0
LINE
  5
106
100
AcDbEntity
100
AcDbLine
  8
0
 62
256
370
-1
 48
1.0
  6
BYLAYER
 10
46.7056676785270071
 20
61.8534784263759718
 30
0.0
 11
9.7056676785270355
 21
61.8534784263759718
 31
0.0
  0
LINE
  5
107
100
AcDbEntity
100
AcDbLine
  8
0
 62
256
370
-1
 48
1.0
  6
BYLAYER
 10
47.0000000000000142
 20
136.0
 30
0.0
 11
10.0000000000000142
 21
136.0
 31
0.0
  0
LINE
  5
108
100
AcDbEntity
100
AcDbLine
  8
0
 62
256
370
-1
 48
1.0
  6
BYLAYER
 10
47.0000000000000142
 20
26.0
 30
0.0
 11
10.0000000000000142
 21
26.0
 31
0.0
  0
LINE
  5
109
100
AcDbEntity
100
AcDbLine
  8
0
 62
256
370
-1
 48
1.0
  6
BYLAYER
 10
136.0606097061268542
 20
190.9138600961538259
 30
0.0
 11
136.0606097061268542
 21
153.9138600961538259
 31
0.0
  0
LINE
  5
10A
100
AcDbEntity
100
AcDbLine
  8
0
 62
256
370
-1
 48
1.0
  6
BYLAYER
 10
178.9866562846152647
 20
189.6040115238118346
 30
0.0
 11
178.9866562846152647
 21
152.6040115238118346
 31
0.0
  0
LINE
  5
10B
100
AcDbEntity
100
AcDbLine
  8
0
 62
256
370
-1
 48
1.0
  6
BYLAYER
 10
96.5854254817678139
 20
191.5773085705128267
 30
0.0
 11
96.5854254817678139
 21
154.5773085705127983
 31
0.0
  0
LINE
  5
10C
100
AcDbEntity
100
AcDbLine
  8
0
 62
256
370
-1
 48
1.0
  6
BYLAYER
 10
9.7056676785270355
 20
43.8534784263759718
 30
0.0
 11
24.7056676785270355
 21
43.8534784263759718
 31
0.0
  0
LINE
  5
10D
100
AcDbEntity
100
AcDbLine
  8
0
 62
256
370
-1
 48
1.0
  6
BYLAYER
 10
10.0000000000000142
 20
118.0
 30
0.0
 11
25.0000000000000142
 21
118.0
 31
0.0
  0
LINE
  5
10E
100
AcDbEntity
100
AcDbLine
  8
0
 62
256
370
-1
 48
1.0
  6
BYLAYER
 10
10.0000000000000142
 20
8.0
 30
0.0
 11
25.0000000000000142
 21
8.0
 31
0.0
  0
LINE
  5
10F
100
AcDbEntity
100
AcDbLine
  8
0
 62
256
370
-1
 48
1.0
  6
BYLAYER
 10
154.0606097061268542
 20
153.9138600961538259
 30
0.0
 11
154.0606097061268542
 21
168.9138600961538259
 31
0.0
  0
LINE
  5
110
100
AcDbEntity
100
AcDbLine
  8
0
 62
256
370
-1
 48
1.0
  6
BYLAYER
 10
196.9866562846152647
 20
152.6040115238118346
 30
0.0
 11
196.9866562846152647
 21
167.6040115238118346
 31
0.0
  0
LINE
  5
111
100
AcDbEntity
100
AcDbLine
  8
0
 62
256
370
-1
 48
1.0
  6
BYLAYER
 10
114.5854254817678139
 20
154.5773085705127983
 30
0.0
 11
114.5854254817678139
 21
169.5773085705127983
 31
0.0
  0
LINE
  5
112
100
AcDbEntity
100
AcDbLine
  8
0
 62
256
370
-1
 48
1.0
  6
BYLAYER
 10
197.0
 20
8.5
 30
0.0
 11
197.0
 21
23.4999999999999858
 31
0.0
  0
LINE
  5
113
100
AcDbEntity
100
AcDbLine
  8
0
 62
256
370
-1
 48
1.0
  6
BYLAYER
 10
9.936031732123908
 20
80.4813629482776776
 30
0.0
 11
24.936031732123908
 21
80.4813629482776776
 31
0.0
  0
LINE
  5
114
100
AcDbEntity
100
AcDbLine
  8
0
 62
256
370
-1
 48
1.0
  6
BYLAYER
 10
25.0000000000000142
 20
8.0
 30
0.0
 11
25.0000000000000142
 21
10.0
 31
0.0
  0
LINE
  5
115
100
AcDbEntity
100
AcDbLine
  8
0
 62
256
370
-1
 48
1.0
  6
BYLAYER
 10
154.0606097061268542
 20
168.9138600961538259
 30
0.0
 11
152.0606097061268542
 21
168.9138600961538259
 31
0.0
  0
LINE
  5
116
100
AcDbEntity
100
AcDbLine
  8
0
 62
256
370
-1
 48
1.0
  6
BYLAYER
 10
196.9866562846152647
 20
167.6040115238118346
 30
0.0
 11
194.9866562846152647
 21
167.6040115238118346
 31
0.0
  0
LINE
  5
117
100
AcDbEntity
100
AcDbLine
  8
0
 62
256
370
-1
 48
1.0
  6
BYLAYER
 10
114.5854254817678139
 20
169.5773085705127983
 30
0.0
 11
112.5854254817678139
 21
169.5773085705127983
 31
0.0
  0
LINE
  5
118
100
AcDbEntity
100
AcDbLine
  8
0
 62
256
370
-1
 48
1.0
  6
BYLAYER
 10
197.0
 20
23.4999999999999858
 30
0.0
 11
195.0
 21
23.4999999999999858
 31
0.0
  0
LINE
  5
119
100
AcDbEntity
100
AcDbLine
  8
0
 62
256
370
-1
 48
1.0
  6
BYLAYER
 10
24.936031732123908
 20
80.4813629482776776
 30
0.0
 11
24.936031732123908
 21
82.4813629482776776
 31
0.0
  0
LINE
  5
11A
100
AcDbEntity
100
AcDbLine
  8
0
 62
256
370
-1
 48
1.0
  6
BYLAYER
 10
24.7056676785270355
 20
43.8534784263759718
 30
0.0
 11
24.7056676785270355
 21
45.8534784263759718
 31
0.0
  0
LINE
  5
11B
100
AcDbEntity
100
AcDbLine
  8
0
 62
256
370
-1
 48
1.0
  6
BYLAYER
 10
25.0000000000000142
 20
118.0
 30
0.0
 11
25.0000000000000142
 21
120.0
 31
0.0
  0
LINE
  5
11C
100
AcDbEntity
100
AcDbLine
  8
0
 62
256
370
-1
 48
1.0
  6
BYLAYER
 10
25.0000000000000142
 20
10.0
 30
0.0
 11
10.0000000000000142
 21
10.0
 31
0.0
  0
LINE
  5
11D
100
AcDbEntity
100
AcDbLine
  8
0
 62
256
370
-1
 48
1.0
  6
BYLAYER
 10
152.0606097061268542
 20
168.9138600961538259
 30
0.0
 11
152.0606097061268542
 21
153.9138600961538259
 31
0.0
  0
LINE
  5
11E
100
AcDbEntity
100
AcDbLine
  8
0
 62
256
370
-1
 48
1.0
  6
BYLAYER
 10
194.9866562846152647
 20
167.6040115238118346
 30
0.0
 11
194.9866562846152647
 21
152.6040115238118346
 31
0.0
  0
LINE
  5
11F
100
AcDbEntity
100
AcDbLine
  8
0
 62
256
370
-1
 48
1.0
  6
BYLAYER
 10
112.5854254817678139
 20
169.5773085705127983
 30
0.0
 11
112.5854254817678139
 21
154.5773085705127983
 31
0.0
  0
LINE
  5
120
100
AcDbEntity
100
AcDbLine
  8
0
 62
256
370
-1
 48
1.0
  6
BYLAYER
 10
195.0
 20
23.4999999999999858
 30
0.0
 11
195.0
 21
8.5
 31
0.0
  0
LINE
  5
121
100
AcDbEntity
100
AcDbLine
  8
0
 62
256
370
-1
 48
1.0
  6
BYLAYER
 10
24.936031732123908
 20
82.4813629482776776
 30
0.0
 11
9.936031732123908
 21
82.4813629482776776
 31
0.0
  0
LINE
  5
122
100
AcDbEntity
100
AcDbLine
  8
0
 62
256
370
-1
 48
1.0
  6
BYLAYER
 10
24.7056676785270355
 20
45.8534784263759718
 30
0.0
 11
9.7056676785270355
 21
45.8534784263759718
 31
0.0
  0
LINE
  5
123
100
AcDbEntity
100
AcDbLine
  8
0
 62
256
370
-1
 48
1.0
  6
BYLAYER
 10
25.0000000000000142
 20
120.0
 30
0.0
 11
10.0000000000000142
 21
120.0
 31
0.0
  0
LINE
  5
124
100
AcDbEntity
100
AcDbLine
  8
0
 62
256
370
-1
 48
1.0
  6
BYLAYER
 10
10.0000000000000142
 20
30.0
 30
0.0
 11
25.0000000000000142
 21
30.0
 31
0.0
  0
LINE
  5
125
100
AcDbEntity
100
AcDbLine
  8
0
 62
256
370
-1
 48
1.0
  6
BYLAYER
 10
132.0606097061268542
 20
153.9138600961538259
 30
0.0
 11
132.0606097061268542
 21
168.9138600961538259
 31
0.0
  0
LINE
  5
126
100
AcDbEntity
100
AcDbLine
  8
0
 62
256
370
-1
 48
1.0
  6
BYLAYER
 10
174.9866562846152647
 20
152.6040115238118346
 30
0.0
 11
174.9866562846152647
 21
167.6040115238118346
 31
0.0
  0
LINE
  5
127
100
AcDbEntity
100
AcDbLine
  8
0
 62
256
370
-1
 48
1.0
  6
BYLAYER
 10
92.5854254817678139
 20
154.5773085705127983
 30
0.0
 11
92.5854254817678139
 21
169.5773085705127983
 31
0.0
  0
LINE
  5
128
100
AcDbEntity
100
AcDbLine
  8
0
 62
256
370
-1
 48
1.0
  6
BYLAYER
 10
175.0
 20
8.5
 30
0.0
 11
175.0
 21
23.5
 31
0.0
  0
LINE
  5
129
100
AcDbEntity
100
AcDbLine
  8
0
 62
256
370
-1
 48
1.0
  6
BYLAYER
 10
9.936031732123908
 20
102.4813629482776776
 30
0.0
 11
24.936031732123908
 21
102.4813629482776776
 31
0.0
  0
LINE
  5
12A
100
AcDbEntity
100
AcDbLine
  8
0
 62
256
370
-1
 48
1.0
  6
BYLAYER
 10
9.7056676785270355
 20
65.8534784263759718
 30
0.0
 11
24.7056676785270355
 21
65.8534784263759718
 31
0.0
  0
LINE
  5
12B
100
AcDbEntity
100
AcDbLine
  8
0
 62
256
370
-1
 48
1.0
  6
BYLAYER
 10
10.0000000000000142
 20
140.0
 30
0.0
 11
25.0000000000000142
 21
140.0
 31
0.0
  0
LINE
  5
12C
100
AcDbEntity
100
AcDbLine
  8
0
 62
256
370
-1
 48
1.0
  6
BYLAYER
 10
25.0000000000000142
 20
30.0
 30
0.0
 11
25.0000000000000142
 21
32.0
 31
0.0
  0
LINE
  5
12D
100
AcDbEntity
100
AcDbLine
  8
0
 62
256
370
-1
 48
1.0
  6
BYLAYER
 10
132.0606097061268542
 20
168.9138600961538259
 30
0.0
 11
130.0606097061268542
 21
168.9138600961537975
 31
0.0
  0
LINE
  5
12E
100
AcDbEntity
100
AcDbLine
  8
0
 62
256
370
-1
 48
1.0
  6
BYLAYER
 10
174.9866562846152647
 20
167.6040115238118346
 30
0.0
 11
172.9866562846152647
 21
167.6040115238118062
 31
0.0
  0
LINE
  5
12F
100
AcDbEntity
100
AcDbLine
  8
0
 62
256
370
-1
 48
1.0
  6
BYLAYER
 10
92.5854254817678139
 20
169.5773085705127983
 30
0.0
 11
90.5854254817678139
 21
169.5773085705127698
 31
0.0
  0
LINE
  5
130
100
AcDbEntity
100
AcDbLine
  8
0
 62
256
370
-1
 48
1.0
  6
BYLAYER
 10
175.0
 20
23.5
 30
0.0
 11
173.0
 21
23.4999999999999716
 31
0.0
  0
LINE
  5
131
100
AcDbEntity
100
AcDbLine
  8
0
 62
256
370
-1
 48
1.0
  6
BYLAYER
 10
24.7056676785270355
 20
65.8534784263759718
 30
0.0
 11
24.7056676785270355
 21
67.8534784263759718
 31
0.0
  0
LINE
  5
132
100
AcDbEntity
100
AcDbLine
  8
0
 62
256
370
-1
 48
1.0
  6
BYLAYER
 10
25.0000000000000142
 20
140.0
 30
0.0
 11
25.0000000000000142
 21
142.0
 31
0.0
  0
LINE
  5
133
100
AcDbEntity
100
AcDbLine
  8
0
 62
256
370
-1
 48
1.0
  6
BYLAYER
 10
24.936031732123908
 20
102.4813629482776776
 30
0.0
 11
24.936031732123908
 21
104.4813629482776776
 31
0.0
  0
LINE
  5
134
100
AcDbEntity
100
AcDbLine
  8
0
 62
256
370
-1
 48
1.0
  6
BYLAYER
 10
25.0000000000000142
 20
32.0
 30
0.0
 11
10.0000000000000142
 21
32.0
 31
0.0
  0
LINE
  5
135
100
AcDbEntity
100
AcDbLine
  8
0
 62
256
370
-1
 48
1.0
  6
BYLAYER
 10
130.0606097061268542
 20
168.9138600961537975
 30
0.0
 11
130.0606097061268542
 21
153.9138600961538259
 31
0.0
  0
LINE
  5
136
100
AcDbEntity
100
AcDbLine
  8
0
 62
256
370
-1
 48
1.0
  6
BYLAYER
 10
172.9866562846152647
 20
167.6040115238118062
 30
0.0
 11
172.9866562846152647
 21
152.6040115238118346
 31
0.0
  0
LINE
  5
137
100
AcDbEntity
100
AcDbLine
  8
0
 62
256
370
-1
 48
1.0
  6
BYLAYER
 10
90.5854254817678139
 20
169.5773085705127698
 30
0.0
 11
90.5854254817678139
 21
154.5773085705127983
 31
0.0
  0
LINE
  5
138
100
AcDbEntity
100
AcDbLine
  8
0
 62
256
370
-1
 48
1.0
  6
BYLAYER
 10
173.0
 20
23.4999999999999716
 30
0.0
 11
173.0
 21
8.5
 31
0.0
  0
LINE
  5
139
100
AcDbEntity
100
AcDbLine
  8
0
 62
256
370
-1
 48
1.0
  6
BYLAYER
 10
24.7056676785270355
 20
67.8534784263759718
 30
0.0
 11
9.7056676785270355
 21
67.8534784263759718
 31
0.0
  0
LINE
  5
13A
100
AcDbEntity
100
AcDbLine
  8
0
 62
256
370
-1
 48
1.0
  6
BYLAYER
 10
25.0000000000000142
 20
142.0
 30
0.0
 11
10.0000000000000142
 21
142.0
 31
0.0
  0
LINE
  5
13B
100
AcDbEntity
100
AcDbLine
  8
0
 62
256
370
-1
 48
1.0
  6
BYLAYER
 10
24.936031732123908
 20
104.4813629482776776
 30
0.0
 11
9.936031732123908
 21
104.4813629482776776
 31
0.0
  0
LINE
  5
13C
100
AcDbEntity
100
AcDbLine
  8
0
 62
256
370
-1
 48
1.0
  6
BYLAYER
 10
147.0
 20
7.0
 30
0.0
 11
114.1961524227066462
 21
7.0
 31
0.0
  0
LINE
  5
13D
100
AcDbEntity
100
AcDbLine
  8
0
 62
256
370
-1
 48
1.0
  6
BYLAYER
 10
155.0606097061263995
 20
290.9138600961538259
 30
0.0
 11
155.0606097061267405
 21
258.1100125188604579
 31
0.0
  0
LINE
  5
13E
100
AcDbEntity
100
AcDbLine
  8
0
 62
256
370
-1
 48
1.0
  6
BYLAYER
 10
197.9866562846148099
 20
289.6040115238118915
 30
0.0
 11
197.986656284615151
 21
256.8001639465185235
 31
0.0
  0
LINE
  5
13F
100
AcDbEntity
100
AcDbLine
  8
0
 62
256
370
-1
 48
1.0
  6
BYLAYER
 10
115.5854254817673592
 20
291.5773085705128551
 30
0.0
 11
115.5854254817677003
 21
258.7734609932194871
 31
0.0
  0
LINE
  5
140
100
AcDbEntity
100
AcDbLine
  8
0
 62
256
370
-1
 48
1.0
  6
BYLAYER
 10
197.9999999999995453
 20
145.5
 30
0.0
 11
197.9999999999998863
 21
112.696152422706632
 31
0.0
  0
LINE
  5
141
100
AcDbEntity
100
AcDbLine
  8
0
 62
256
370
-1
 48
1.0
  6
BYLAYER
 10
146.7056676785269929
 20
42.8534784263759718
 30
0.0
 11
113.9018201012336391
 21
42.8534784263759718
 31
0.0
  0
LINE
  5
142
100
AcDbEntity
100
AcDbLine
  8
0
 62
256
370
-1
 48
1.0
  6
BYLAYER
 10
147.0
 20
117.0
 30
0.0
 11
114.1961524227066462
 21
117.0
 31
0.0
  0
LINE
  5
143
100
AcDbEntity
100
AcDbLine
  8
0
 62
256
370
-1
 48
1.0
  6
BYLAYER
 10
146.9360317321238654
 20
79.4813629482776776
 30
0.0
 11
114.1321841548305116
 21
79.4813629482776776
 31
0.0
  0
LINE
  5
144
100
AcDbEntity
100
AcDbLine
  8
0
 62
256
370
-1
 48
1.0
  6
BYLAYER
 10
112.0000000000000142
 20
7.0
 30
0.0
 11
112.0000000000000142
 21
7.0
 31
0.0
  0
LINE
  5
145
100
AcDbEntity
100
AcDbLine
  8
0
 62
256
370
-1
 48
1.0
  6
BYLAYER
 10
155.0606097061268542
 20
255.9138600961537975
 30
0.0
 11
155.0606097061268542
 21
255.9138600961537975
 31
0.0
  0
LINE
  5
146
100
AcDbEntity
100
AcDbLine
  8
0
 62
256
370
-1
 48
1.0
  6
BYLAYER
 10
197.9866562846152647
 20
254.6040115238118631
 30
0.0
 11
197.9866562846152647
 21
254.6040115238118631
 31
0.0
  0
LINE
  5
147
100
AcDbEntity
100
AcDbLine
  8
0
 62
256
370
-1
 48
1.0
  6
BYLAYER
 10
115.5854254817678139
 20
256.5773085705128551
 30
0.0
 11
115.5854254817678139
 21
256.5773085705128551
 31
0.0
  0
LINE
  5
148
100
AcDbEntity
100
AcDbLine
  8
0
 62
256
370
-1
 48
1.0
  6
BYLAYER
 10
198.0
 20
110.5
 30
0.0
 11
198.0
 21
110.5
 31
0.0
  0
LINE
  5
149
100
AcDbEntity
100
AcDbLine
  8
0
 62
256
370
-1
 48
1.0
  6
BYLAYER
 10
111.7056676785270071
 20
42.8534784263759718
 30
0.0
 11
111.7056676785270071
 21
42.8534784263759718
 31
0.0
  0
LINE
  5
14A
100
AcDbEntity
100
AcDbLine
  8
0
 62
256
370
-1
 48
1.0
  6
BYLAYER
 10
112.0000000000000142
 20
117.0
 30
0.0
 11
112.0000000000000142
 21
117.0
 31
0.0
  0
LINE
  5
14B
100
AcDbEntity
100
AcDbLine
  8
0
 62
256
370
-1
 48
1.0
  6
BYLAYER
 10
111.9360317321238796
 20
79.4813629482776776
 30
0.0
 11
111.9360317321238796
 21
79.4813629482776776
 31
0.0
  0
LINE
  5
14C
100
AcDbEntity
100
AcDbLine
  8
0
 62
256
370
-1
 48
1.0
  6
BYLAYER
 10
147.0
 20
33.0
 30
0.0
 11
114.1961524227066462
 21
33.0
 31
0.0
  0
LINE
  5
14D
100
AcDbEntity
100
AcDbLine
  8
0
 62
256
370
-1
 48
1.0
  6
BYLAYER
 10
129.0606097061267405
 20
290.9138600961538259
 30
0.0
 11
129.0606097061268542
 21
258.1100125188604579
 31
0.0
  0
LINE
  5
14E
100
AcDbEntity
100
AcDbLine
  8
0
 62
256
370
-1
 48
1.0
  6
BYLAYER
 10
171.986656284615151
 20
289.6040115238118915
 30
0.0
 11
171.9866562846152647
 21
256.8001639465185235
 31
0.0
  0
LINE
  5
14F
100
AcDbEntity
100
AcDbLine
  8
0
 62
256
370
-1
 48
1.0
  6
BYLAYER
 10
89.5854254817677003
 20
291.5773085705128551
 30
0.0
 11
89.5854254817678139
 21
258.7734609932194871
 31
0.0
  0
LINE
  5
150
100
AcDbEntity
100
AcDbLine
  8
0
 62
256
370
-1
 48
1.0
  6
BYLAYER
 10
171.9999999999998863
 20
145.5
 30
0.0
 11
172.0
 21
112.696152422706632
 31
0.0
  0
LINE
  5
151
100
AcDbEntity
100
AcDbLine
  8
0
 62
256
370
-1
 48
1.0
  6
BYLAYER
 10
146.7056676785269929
 20
68.8534784263759718
 30
0.0
 11
113.9018201012336391
 21
68.8534784263759718
 31
0.0
  0
LINE
  5
152
100
AcDbEntity
100
AcDbLine
  8
0
 62
256
370
-1
 48
1.0
  6
BYLAYER
 10
147.0
 20
143.0
 30
0.0
 11
114.1961524227066462
 21
143.0
 31
0.0
  0
LINE
  5
153
100
AcDbEntity
100
AcDbLine
  8
0
 62
256
370
-1
 48
1.0
  6
BYLAYER
 10
146.9360317321238654
 20
105.4813629482776776
 30
0.0
 11
114.1321841548305116
 21
105.4813629482776776
 31
0.0
  0
LINE
  5
154
100
AcDbEntity
100
AcDbLine
  8
0
 62
256
370
-1
 48
1.0
  6
BYLAYER
 10
172.0
 20
110.5
 30
0.0
 11
172.0
 21
110.5
 31
0.0
  0
LINE
  5
155
100
AcDbEntity
100
AcDbLine
  8
0
 62
256
370
-1
 48
1.0
  6
BYLAYER
 10
111.7056676785270071
 20
68.8534784263759718
 30
0.0
 11
111.7056676785270071
 21
68.8534784263759718
 31
0.0
  0
LINE
  5
156
100
AcDbEntity
100
AcDbLine
  8
0
 62
256
370
-1
 48
1.0
  6
BYLAYER
 10
112.0000000000000142
 20
143.0
 30
0.0
 11
112.0000000000000142
 21
143.0
 31
0.0
  0
LINE
  5
157
100
AcDbEntity
100
AcDbLine
  8
0
 62
256
370
-1
 48
1.0
  6
BYLAYER
 10
111.9360317321238796
 20
105.4813629482776776
 30
0.0
 11
111.9360317321238796
 21
105.4813629482776776
 31
0.0
  0
LINE
  5
158
100
AcDbEntity
100
AcDbLine
  8
0
 62
256
370
-1
 48
1.0
  6
BYLAYER
 10
112.0000000000000142
 20
33.0
 30
0.0
 11
112.0000000000000142
 21
33.0
 31
0.0
  0
LINE
  5
159
100
AcDbEntity
100
AcDbLine
  8
0
 62
256
370
-1
 48
1.0
  6
BYLAYER
 10
129.0606097061268542
 20
255.9138600961537975
 30
0.0
 11
129.0606097061268542
 21
255.9138600961537975
 31
0.0
  0
LINE
  5
15A
100
AcDbEntity
100
AcDbLine
  8
0
 62
256
370
-1
 48
1.0
  6
BYLAYER
 10
171.9866562846152647
 20
254.6040115238118631
 30
0.0
 11
171.9866562846152647
 21
254.6040115238118631
 31
0.0
  0
LINE
  5
15B
100
AcDbEntity
100
AcDbLine
  8
0
 62
256
370
-1
 48
1.0
  6
BYLAYER
 10
89.5854254817678139
 20
256.5773085705128551
 30
0.0
 11
89.5854254817678139
 21
256.5773085705128551
 31
0.0
  0
ARC
  5
15C
100
AcDbEntity
  8
0
 62
256
370
-1
 48
1.0
  6
BYLAYER
100
AcDbCircle
 10
109.0000000000000142
 20
7.0
 30
0.0
 40
3.0
100
AcDbArc
 50
270.0
 51
330.0
  0
ARC
  5
15D
100
AcDbEntity
  8
0
 62
256
370
-1
 48
1.0
  6
BYLAYER
100
AcDbCircle
 10
155.0606097061268542
 20
252.9138600961537975
 30
0.0
 40
3.0
100
AcDbArc
 50
0.0
 51
60.0000000000000355
  0
ARC
  5
15E
100
AcDbEntity
  8
0
 62
256
370
-1
 48
1.0
  6
BYLAYER
100
AcDbCircle
 10
197.9866562846152647
 20
251.6040115238118631
 30
0.0
 40
3.0
100
AcDbArc
 50
0.0
 51
60.0000000000000355
  0
ARC
  5
15F
100
AcDbEntity
  8
0
 62
256
370
-1
 48
1.0
  6
BYLAYER
100
AcDbCircle
 10
115.5854254817678139
 20
253.5773085705128267
 30
0.0
 40
3.0
100
AcDbArc
 50
0.0
 51
60.0000000000000355
  0
ARC
  5
160
100
AcDbEntity
  8
0
 62
256
370
-1
 48
1.0
  6
BYLAYER
100
AcDbCircle
 10
198.0
 20
107.5
 30
0.0
 40
3.0
100
AcDbArc
 50
0.0
 51
60.0000000000000355
  0
ARC
  5
161
100
AcDbEntity
  8
0
 62
256
370
-1
 48
1.0
  6
BYLAYER
100
AcDbCircle
 10
108.7056676785270071
 20
42.8534784263759718
 30
0.0
 40
3.0
100
AcDbArc
 50
270.0
 51
330.0
  0
ARC
  5
162
100
AcDbEntity
  8
0
 62
256
370
-1
 48
1.0
  6
BYLAYER
100
AcDbCircle
 10
109.0000000000000142
 20
117.0
 30
0.0
 40
3.0
100
AcDbArc
 50
270.0
 51
330.0
  0
ARC
  5
163
100
AcDbEntity
  8
0
 62
256
370
-1
 48
1.0
  6
BYLAYER
100
AcDbCircle
 10
108.9360317321238796
 20
79.4813629482776776
 30
0.0
 40
3.0
100
AcDbArc
 50
270.0
 51
330.0
  0
ARC
  5
164
100
AcDbEntity
  8
0
 62
256
370
-1
 48
1.0
  6
BYLAYER
100
AcDbCircle
 10
201.0
 20
112.696152422706632
 30
0.0
 40
3.0
100
AcDbArc
 50
180.0
 51
240.0000000000000284
  0
ARC
  5
165
100
AcDbEntity
  8
0
 62
256
370
-1
 48
1.0
  6
BYLAYER
100
AcDbCircle
 10
113.9018201012336391
 20
39.8534784263759718
 30
0.0
 40
3.0
100
AcDbArc
 50
90.0
 51
150.0
  0
ARC
  5
166
100
AcDbEntity
  8
0
 62
256
370
-1
 48
1.0
  6
BYLAYER
100
AcDbCircle
 10
114.1961524227066462
 20
114.0
 30
0.0
 40
3.0
100
AcDbArc
 50
90.0
 51
150.0
  0
ARC
  5
167
100
AcDbEntity
  8
0
 62
256
370
-1
 48
1.0
  6
BYLAYER
100
AcDbCircle
 10
114.1321841548305116
 20
76.4813629482776776
 30
0.0
 40
3.0
100
AcDbArc
 50
90.0
 51
150.0
  0
ARC
  5
168
100
AcDbEntity
  8
0
 62
256
370
-1
 48
1.0
  6
BYLAYER
100
AcDbCircle
 10
114.1961524227066462
 20
4.0
 30
0.0
 40
3.0
100
AcDbArc
 50
90.0
 51
150.0
  0
ARC
  5
169
100
AcDbEntity
  8
0
 62
256
370
-1
 48
1.0
  6
BYLAYER
100
AcDbCircle
 10
158.0606097061268542
 20
258.1100125188604579
 30
0.0
 40
3.0
100
AcDbArc
 50
180.0
 51
240.0000000000000284
  0
ARC
  5
16A
100
AcDbEntity
  8
0
 62
256
370
-1
 48
1.0
  6
BYLAYER
100
AcDbCircle
 10
200.9866562846152647
 20
256.8001639465185235
 30
0.0
 40
3.0
100
AcDbArc
 50
180.0
 51
240.0000000000000284
  0
ARC
  5
16B
100
AcDbEntity
  8
0
 62
256
370
-1
 48
1.0
  6
BYLAYER
100
AcDbCircle
 10
118.5854254817678139
 20
258.7734609932194871
 30
0.0
 40
3.0
100
AcDbArc
 50
180.0
 51
240.0000000000000284
  0
ARC
  5
16C
100
AcDbEntity
  8
0
 62
256
370
-1
 48
1.0
  6
BYLAYER
100
AcDbCircle
 10
129.0606097061268542
 20
252.9138600961537975
 30
0.0
 40
3.0
100
AcDbArc
 50
120.0
 51
180.0
  0
ARC
  5
16D
100
AcDbEntity
  8
0
 62
256
370
-1
 48
1.0
  6
BYLAYER
100
AcDbCircle
 10
171.9866562846152647
 20
251.6040115238118631
 30
0.0
 40
3.0
100
AcDbArc
 50
120.0
 51
180.0
  0
ARC
  5
16E
100
AcDbEntity
  8
0
 62
256
370
-1
 48
1.0
  6
BYLAYER
100
AcDbCircle
 10
89.5854254817678139
 20
253.5773085705128267
 30
0.0
 40
3.0
100
AcDbArc
 50
120.0
 51
180.0
  0
ARC
  5
16F
100
AcDbEntity
  8
0
 62
256
370
-1
 48
1.0
  6
BYLAYER
100
AcDbCircle
 10
172.0
 20
107.5
 30
0.0
 40
3.0
100
AcDbArc
 50
120.0
 51
180.0
  0
ARC
  5
170
100
AcDbEntity
  8
0
 62
256
370
-1
 48
1.0
  6
BYLAYER
100
AcDbCircle
 10
108.7056676785270071
 20
68.8534784263759718
 30
0.0
 40
3.0
100
AcDbArc
 50
30.0
 51
90.0
  0
ARC
  5
171
100
AcDbEntity
  8
0
 62
256
370
-1
 48
1.0
  6
BYLAYER
100
AcDbCircle
 10
109.0000000000000142
 20
143.0
 30
0.0
 40
3.0
100
AcDbArc
 50
30.0
 51
90.0
  0
ARC
  5
172
100
AcDbEntity
  8
0
 62
256
370
-1
 48
1.0
  6
BYLAYER
100
AcDbCircle
 10
108.9360317321238796
 20
105.4813629482776776
 30
0.0
 40
3.0
100
AcDbArc
 50
30.0
 51
90.0
  0
ARC
  5
173
100
AcDbEntity
  8
0
 62
256
370
-1
 48
1.0
  6
BYLAYER
100
AcDbCircle
 10
109.0000000000000142
 20
33.0
 30
0.0
 40
3.0
100
AcDbArc
 50
30.0
 51
90.0
  0
ARC
  5
174
100
AcDbEntity
  8
0
 62
256
370
-1
 48
1.0
  6
BYLAYER
100
AcDbCircle
 10
126.0606097061268684
 20
258.1100125188604579
 30
0.0
 40
3.0
100
AcDbArc
 50
300.0
 51
0.0
  0
ARC
  5
175
100
AcDbEntity
  8
0
 62
256
370
-1
 48
1.0
  6
BYLAYER
100
AcDbCircle
 10
168.9866562846152647
 20
256.8001639465185235
 30
0.0
 40
3.0
100
AcDbArc
 50
300.0
 51
0.0
  0
ARC
  5
176
100
AcDbEntity
  8
0
 62
256
370
-1
 48
1.0
  6
BYLAYER
100
AcDbCircle
 10
86.5854254817678139
 20
258.7734609932194871
 30
0.0
 40
3.0
100
AcDbArc
 50
300.0
 51
0.0
  0
ARC
  5
177
100
AcDbEntity
  8
0
 62
256
370
-1
 48
1.0
  6
BYLAYER
100
AcDbCircle
 10
169.0
 20
112.696152422706632
 30
0.0
 40
3.0
100
AcDbArc
 50
300.0
 51
0.0
  0
ARC
  5
178
100
AcDbEntity
  8
0
 62
256
370
-1
 48
1.0
  6
BYLAYER
100
AcDbCircle
 10
113.9018201012336391
 20
71.8534784263759718
 30
0.0
 40
3.0
100
AcDbArc
 50
209.9999999999999716
 51
270.0
  0
ARC
  5
179
100
AcDbEntity
  8
0
 62
256
370
-1
 48
1.0
  6
BYLAYER
100
AcDbCircle
 10
114.1961524227066462
 20
146.0
 30
0.0
 40
3.0
100
AcDbArc
 50
209.9999999999999716
 51
270.0
  0
ARC
  5
17A
100
AcDbEntity
  8
0
 62
256
370
-1
 48
1.0
  6
BYLAYER
100
AcDbCircle
 10
114.1321841548305116
 20
108.4813629482776776
 30
0.0
 40
3.0
100
AcDbArc
 50
209.9999999999999716
 51
270.0
  0
ARC
  5
17B
100
AcDbEntity
  8
0
 62
256
370
-1
 48
1.0
  6
BYLAYER
100
AcDbCircle
 10
114.1961524227066462
 20
36.0
 30
0.0
 40
3.0
100
AcDbArc
 50
209.9999999999999716
 51
270.0
  0
ARC
  5
17C
100
AcDbEntity
  8
0
 62
256
370
-1
 48
1.0
  6
BYLAYER
100
AcDbCircle
 10
92.5854254817677003
 20
291.5773085705128551
 30
0.0
 40
3.0
100
AcDbArc
 50
90.0
 51
180.0
  0
ARC
  5
17D
100
AcDbEntity
  8
0
 62
256
370
-1
 48
1.0
  6
BYLAYER
100
AcDbCircle
 10
174.9999999999998863
 20
145.5
 30
0.0
 40
3.0
100
AcDbArc
 50
90.0
 51
180.0
  0
ARC
  5
17E
100
AcDbEntity
  8
0
 62
256
370
-1
 48
1.0
  6
BYLAYER
100
AcDbCircle
 10
146.7056676785269929
 20
65.8534784263759718
 30
0.0
 40
3.0
100
AcDbArc
 50
0.0
 51
90.0
  0
ARC
  5
17F
100
AcDbEntity
  8
0
 62
256
370
-1
 48
1.0
  6
BYLAYER
100
AcDbCircle
 10
147.0
 20
140.0
 30
0.0
 40
3.0
100
AcDbArc
 50
0.0
 51
90.0
  0
ARC
  5
180
100
AcDbEntity
  8
0
 62
256
370
-1
 48
1.0
  6
BYLAYER
100
AcDbCircle
 10
146.9360317321238654
 20
102.4813629482776776
 30
0.0
 40
3.0
100
AcDbArc
 50
0.0
 51
90.0
  0
ARC
  5
181
100
AcDbEntity
  8
0
 62
256
370
-1
 48
1.0
  6
BYLAYER
100
AcDbCircle
 10
147.0
 20
30.0
 30
0.0
 40
3.0
100
AcDbArc
 50
0.0
 51
90.0
  0
ARC
  5
182
100
AcDbEntity
  8
0
 62
256
370
-1
 48
1.0
  6
BYLAYER
100
AcDbCircle
 10
132.0606097061267405
 20
290.9138600961538259
 30
0.0
 40
3.0
100
AcDbArc
 50
90.0
 51
180.0
  0
ARC
  5
183
100
AcDbEntity
  8
0
 62
256
370
-1
 48
1.0
  6
BYLAYER
100
AcDbCircle
 10
174.986656284615151
 20
289.6040115238118915
 30
0.0
 40
3.0
100
AcDbArc
 50
90.0
 51
180.0
  0
ARC
  5
184
100
AcDbEntity
  8
0
 62
256
370
-1
 48
1.0
  6
BYLAYER
100
AcDbCircle
 10
152.0606097061265132
 20
290.9138600961538259
 30
0.0
 40
3.0
100
AcDbArc
 50
0.0
 51
90.0
  0
ARC
  5
185
100
AcDbEntity
  8
0
 62
256
370
-1
 48
1.0
  6
BYLAYER
100
AcDbCircle
 10
194.9866562846149236
 20
289.6040115238118915
 30
0.0
 40
3.0
100
AcDbArc
 50
0.0
 51
90.0
  0
ARC
  5
186
100
AcDbEntity
  8
0
 62
256
370
-1
 48
1.0
  6
BYLAYER
100
AcDbCircle
 10
112.5854254817674729
 20
291.5773085705128551
 30
0.0
 40
3.0
100
AcDbArc
 50
0.0
 51
90.0
  0
ARC
  5
187
100
AcDbEntity
  8
0
 62
256
370
-1
 48
1.0
  6
BYLAYER
100
AcDbCircle
 10
194.9999999999996589
 20
145.5
 30
0.0
 40
3.0
100
AcDbArc
 50
0.0
 51
90.0
  0
ARC
  5
188
100
AcDbEntity
  8
0
 62
256
370
-1
 48
1.0
  6
BYLAYER
100
AcDbCircle
 10
146.7056676785269929
 20
45.8534784263759718
 30
0.0
 40
3.0
100
AcDbArc
 50
270.0
 51
360.0
  0
ARC
  5
189
100
AcDbEntity
  8
0
 62
256
370
-1
 48
1.0
  6
BYLAYER
100
AcDbCircle
 10
147.0
 20
120.0
 30
0.0
 40
3.0
100
AcDbArc
 50
270.0
 51
360.0
  0
ARC
  5
18A
100
AcDbEntity
  8
0
 62
256
370
-1
 48
1.0
  6
BYLAYER
100
AcDbCircle
 10
146.9360317321238654
 20
82.4813629482776776
 30
0.0
 40
3.0
100
AcDbArc
 50
270.0
 51
360.0
  0
ARC
  5
18B
100
AcDbEntity
  8
0
 62
256
370
-1
 48
1.0
  6
BYLAYER
100
AcDbCircle
 10
147.0
 20
10.0
 30
0.0
 40
3.0
100
AcDbArc
 50
270.0
 51
360.0
  0
ARC
  5
18C
100
AcDbEntity
  8
0
 62
256
370
-1
 48
1.0
  6
BYLAYER
100
AcDbCircle
 10
47.0000000000000142
 20
23.0
 30
0.0
 40
3.0
100
AcDbArc
 50
0.0
 51
90.0
  0
ARC
  5
18D
100
AcDbEntity
  8
0
 62
256
370
-1
 48
1.0
  6
BYLAYER
100
AcDbCircle
 10
139.0606097061268542
 20
190.9138600961538259
 30
0.0
 40
3.0
100
AcDbArc
 50
90.0
 51
180.0
  0
ARC
  5
18E
100
AcDbEntity
  8
0
 62
256
370
-1
 48
1.0
  6
BYLAYER
100
AcDbCircle
 10
181.9866562846152647
 20
189.6040115238118346
 30
0.0
 40
3.0
100
AcDbArc
 50
90.0
 51
180.0
  0
ARC
  5
18F
100
AcDbEntity
  8
0
 62
256
370
-1
 48
1.0
  6
BYLAYER
100
AcDbCircle
 10
99.5854254817678139
 20
191.5773085705128267
 30
0.0
 40
3.0
100
AcDbArc
 50
90.0
 51
180.0
  0
ARC
  5
190
100
AcDbEntity
  8
0
 62
256
370
-1
 48
1.0
  6
BYLAYER
100
AcDbCircle
 10
182.0
 20
45.4999999999999858
 30
0.0
 40
3.0
100
AcDbArc
 50
90.0
 51
180.0
  0
ARC
  5
191
100
AcDbEntity
  8
0
 62
256
370
-1
 48
1.0
  6
BYLAYER
100
AcDbCircle
 10
46.7056676785270071
 20
58.8534784263759718
 30
0.0
 40
3.0
100
AcDbArc
 50
0.0
 51
90.0
  0
ARC
  5
192
100
AcDbEntity
  8
0
 62
256
370
-1
 48
1.0
  6
BYLAYER
100
AcDbCircle
 10
47.0000000000000142
 20
133.0
 30
0.0
 40
3.0
100
AcDbArc
 50
0.0
 51
90.0
  0
ARC
  5
193
100
AcDbEntity
  8
0
 62
256
370
-1
 48
1.0
  6
BYLAYER
100
AcDbCircle
 10
46.9360317321238796
 20
95.4813629482776776
 30
0.0
 40
3.0
100
AcDbArc
 50
0.0
 51
90.0
  0
ARC
  5
194
100
AcDbEntity
  8
0
 62
256
370
-1
 48
1.0
  6
BYLAYER
100
AcDbCircle
 10
47.0000000000000142
 20
17.0
 30
0.0
 40
3.0
100
AcDbArc
 50
270.0
 51
0.0
  0
ARC
  5
195
100
AcDbEntity
  8
0
 62
256
370
-1
 48
1.0
  6
BYLAYER
100
AcDbCircle
 10
145.0606097061268542
 20
190.9138600961538259
 30
0.0
 40
3.0
100
AcDbArc
 50
0.0
 51
90.0
  0
ARC
  5
196
100
AcDbEntity
  8
0
 62
256
370
-1
 48
1.0
  6
BYLAYER
100
AcDbCircle
 10
187.9866562846152647
 20
189.6040115238118346
 30
0.0
 40
3.0
100
AcDbArc
 50
0.0
 51
90.0
  0
ARC
  5
197
100
AcDbEntity
  8
0
 62
256
370
-1
 48
1.0
  6
BYLAYER
100
AcDbCircle
 10
105.5854254817678139
 20
191.5773085705128267
 30
0.0
 40
3.0
100
AcDbArc
 50
0.0
 51
90.0
  0
ARC
  5
198
100
AcDbEntity
  8
0
 62
256
370
-1
 48
1.0
  6
BYLAYER
100
AcDbCircle
 10
188.0
 20
45.4999999999999858
 30
0.0
 40
3.0
100
AcDbArc
 50
0.0
 51
90.0
  0
ARC
  5
199
100
AcDbEntity
  8
0
 62
256
370
-1
 48
1.0
  6
BYLAYER
100
AcDbCircle
 10
46.7056676785270071
 20
52.8534784263759718
 30
0.0
 40
3.0
100
AcDbArc
 50
270.0
 51
0.0
  0
ARC
  5
19A
100
AcDbEntity
  8
0
 62
256
370
-1
 48
1.0
  6
BYLAYER
100
AcDbCircle
 10
47.0000000000000142
 20
127.0
 30
0.0
 40
3.0
100
AcDbArc
 50
270.0
 51
0.0
  0
ARC
  5
19B
100
AcDbEntity
  8
0
 62
256
370
-1
 48
1.0
  6
BYLAYER
100
AcDbCircle
 10
46.9360317321238796
 20
89.4813629482776776
 30
0.0
 40
3.0
100
AcDbArc
 50
270.0
 51
0.0
  0
LINE
  5
19C
100
AcDbEntity
100
AcDbLine
  8
0
 62
256
370
-1
 48
1.0
  6
BYLAYER
 10
10.0000000000000142
 20
36.0
 30
0.0
 11
10.0000000000000142
 21
32.0
 31
0.0
  0
LINE
  5
19D
100
AcDbEntity
100
AcDbLine
  8
0
 62
256
370
-1
 48
1.0
  6
BYLAYER
 10
126.0606097061268684
 20
153.9138600961538259
 30
0.0
 11
130.0606097061268542
 21
153.9138600961538259
 31
0.0
  0
LINE
  5
19E
100
AcDbEntity
100
AcDbLine
  8
0
 62
256
370
-1
 48
1.0
  6
BYLAYER
 10
168.9866562846152647
 20
152.6040115238118346
 30
0.0
 11
172.9866562846152647
 21
152.6040115238118346
 31
0.0
  0
LINE
  5
19F
100
AcDbEntity
100
AcDbLine
  8
0
 62
256
370
-1
 48
1.0
  6
BYLAYER
 10
86.5854254817678139
 20
154.5773085705127983
 30
0.0
 11
90.5854254817678139
 21
154.5773085705127983
 31
0.0
  0
LINE
  5
1A0
100
AcDbEntity
100
AcDbLine
  8
0
 62
256
370
-1
 48
1.0
  6
BYLAYER
 10
169.0
 20
8.5
 30
0.0
 11
173.0
 21
8.5
 31
0.0
  0
LINE
  5
1A1
100
AcDbEntity
100
AcDbLine
  8
0
 62
256
370
-1
 48
1.0
  6
BYLAYER
 10
9.7056676785270355
 20
71.8534784263759718
 30
0.0
 11
9.7056676785270355
 21
67.8534784263759718
 31
0.0
  0
LINE
  5
1A2
100
AcDbEntity
100
AcDbLine
  8
0
 62
256
370
-1
 48
1.0
  6
BYLAYER
 10
10.0000000000000142
 20
146.0
 30
0.0
 11
10.0000000000000142
 21
142.0
 31
0.0
  0
LINE
  5
1A3
100
AcDbEntity
100
AcDbLine
  8
0
 62
256
370
-1
 48
1.0
  6
BYLAYER
 10
9.936031732123908
 20
108.4813629482776776
 30
0.0
 11
9.936031732123908
 21
104.4813629482776776
 31
0.0
  0
LINE
  5
1A4
100
AcDbEntity
100
AcDbLine
  8
0
 62
256
370
-1
 48
1.0
  6
BYLAYER
 10
10.0000000000000142
 20
30.0
 30
0.0
 11
10.0000000000000142
 21
26.0
 31
0.0
  0
LINE
  5
1A5
100
AcDbEntity
100
AcDbLine
  8
0
 62
256
370
-1
 48
1.0
  6
BYLAYER
 10
132.0606097061268542
 20
153.9138600961538259
 30
0.0
 11
136.0606097061268542
 21
153.9138600961538259
 31
0.0
  0
LINE
  5
1A6
100
AcDbEntity
100
AcDbLine
  8
0
 62
256
370
-1
 48
1.0
  6
BYLAYER
 10
174.9866562846152647
 20
152.6040115238118346
 30
0.0
 11
178.9866562846152647
 21
152.6040115238118346
 31
0.0
  0
LINE
  5
1A7
100
AcDbEntity
100
AcDbLine
  8
0
 62
256
370
-1
 48
1.0
  6
BYLAYER
 10
92.5854254817678139
 20
154.5773085705127983
 30
0.0
 11
96.5854254817678139
 21
154.5773085705127983
 31
0.0
  0
LINE
  5
1A8
100
AcDbEntity
100
AcDbLine
  8
0
 62
256
370
-1
 48
1.0
  6
BYLAYER
 10
175.0
 20
8.5
 30
0.0
 11
179.0
 21
8.5
 31
0.0
  0
LINE
  5
1A9
100
AcDbEntity
100
AcDbLine
  8
0
 62
256
370
-1
 48
1.0
  6
BYLAYER
 10
9.7056676785270355
 20
65.8534784263759718
 30
0.0
 11
9.7056676785270355
 21
61.8534784263759718
 31
0.0
  0
LINE
  5
1AA
100
AcDbEntity
100
AcDbLine
  8
0
 62
256
370
-1
 48
1.0
  6
BYLAYER
 10
10.0000000000000142
 20
140.0
 30
0.0
 11
10.0000000000000142
 21
136.0
 31
0.0
  0
LINE
  5
1AB
100
AcDbEntity
100
AcDbLine
  8
0
 62
256
370
-1
 48
1.0
  6
BYLAYER
 10
9.936031732123908
 20
102.4813629482776776
 30
0.0
 11
9.936031732123908
 21
98.4813629482776776
 31
0.0
  0
LINE
  5
1AC
100
AcDbEntity
100
AcDbLine
  8
0
 62
256
370
-1
 48
1.0
  6
BYLAYER
 10
148.0606097061268542
 20
153.9138600961538259
 30
0.0
 11
152.0606097061268542
 21
153.9138600961538259
 31
0.0
  0
LINE
  5
1AD
100
AcDbEntity
100
AcDbLine
  8
0
 62
256
370
-1
 48
1.0
  6
BYLAYER
 10
190.9866562846152647
 20
152.6040115238118346
 30
0.0
 11
194.9866562846152647
 21
152.6040115238118346
 31
0.0
  0
LINE
  5
1AE
100
AcDbEntity
100
AcDbLine
  8
0
 62
256
370
-1
 48
1.0
  6
BYLAYER
 10
108.5854254817678139
 20
154.5773085705127983
 30
0.0
 11
112.5854254817678139
 21
154.5773085705127983
 31
0.0
  0
LINE
  5
1AF
100
AcDbEntity
100
AcDbLine
  8
0
 62
256
370
-1
 48
1.0
  6
BYLAYER
 10
191.0
 20
8.5
 30
0.0
 11
195.0
 21
8.5
 31
0.0
  0
LINE
  5
1B0
100
AcDbEntity
100
AcDbLine
  8
0
 62
256
370
-1
 48
1.0
  6
BYLAYER
 10
9.7056676785270355
 20
49.8534784263759718
 30
0.0
 11
9.7056676785270355
 21
45.8534784263759718
 31
0.0
  0
LINE
  5
1B1
100
AcDbEntity
100
AcDbLine
  8
0
 62
256
370
-1
 48
1.0
  6
BYLAYER
 10
10.0000000000000142
 20
124.0
 30
0.0
 11
10.0000000000000142
 21
120.0
 31
0.0
  0
LINE
  5
1B2
100
AcDbEntity
100
AcDbLine
  8
0
 62
256
370
-1
 48
1.0
  6
BYLAYER
 10
9.936031732123908
 20
86.4813629482776776
 30
0.0
 11
9.936031732123908
 21
82.4813629482776776
 31
0.0
  0
LINE
  5
1B3
100
AcDbEntity
100
AcDbLine
  8
0
 62
256
370
-1
 48
1.0
  6
BYLAYER
 10
10.0000000000000142
 20
14.0
 30
0.0
 11
10.0000000000000142
 21
10.0
 31
0.0
  0
LINE
  5
1B4
100
AcDbEntity
100
AcDbLine
  8
0
 62
256
370
-1
 48
1.0
  6
BYLAYER
 10
154.0606097061268542
 20
153.9138600961538259
 30
0.0
 11
158.0606097061268542
 21
153.9138600961538259
 31
0.0
  0
LINE
  5
1B5
100
AcDbEntity
100
AcDbLine
  8
0
 62
256
370
-1
 48
1.0
  6
BYLAYER
 10
196.9866562846152647
 20
152.6040115238118346
 30
0.0
 11
200.9866562846152647
 21
152.6040115238118346
 31
0.0
  0
LINE
  5
1B6
100
AcDbEntity
100
AcDbLine
  8
0
 62
256
370
-1
 48
1.0
  6
BYLAYER
 10
114.5854254817678139
 20
154.5773085705127983
 30
0.0
 11
118.5854254817678139
 21
154.5773085705127983
 31
0.0
  0
LINE
  5
1B7
100
AcDbEntity
100
AcDbLine
  8
0
 62
256
370
-1
 48
1.0
  6
BYLAYER
 10
197.0
 20
8.5
 30
0.0
 11
201.0
 21
8.5
 31
0.0
  0
LINE
  5
1B8
100
AcDbEntity
100
AcDbLine
  8
0
 62
256
370
-1
 48
1.0
  6
BYLAYER
 10
9.7056676785270355
 20
43.8534784263759718
 30
0.0
 11
9.7056676785270355
 21
39.8534784263759718
 31
0.0
  0
LINE
  5
1B9
100
AcDbEntity
100
AcDbLine
  8
0
 62
256
370
-1
 48
1.0
  6
BYLAYER
 10
10.0000000000000142
 20
118.0
 30
0.0
 11
10.0000000000000142
 21
114.0
 31
0.0
  0
LINE
  5
1BA
100
AcDbEntity
100
AcDbLine
  8
0
 62
256
370
-1
 48
1.0
  6
BYLAYER
 10
9.936031732123908
 20
80.4813629482776776
 30
0.0
 11
9.936031732123908
 21
76.4813629482776776
 31
0.0
  0
LINE
  5
1BB
100
AcDbEntity
100
AcDbLine
  8
0
 62
256
370
-1
 48
1.0
  6
BYLAYER
 10
10.0000000000000142
 20
8.0
 30
0.0
 11
10.0000000000000142
 21
4.0
 31
0.0
  0
LINE
  5
1BC
100
AcDbEntity
100
AcDbLine
  8
0
 62
256
370
-1
 48
1.0
  6
BYLAYER
 10
19.2247521700259227
 20
148.5615013175676609
 30
0.0
 11
79.2247521700259227
 21
148.5615013175676324
 31
0.0
  0
LINE
  5
1BD
100
AcDbEntity
100
AcDbLine
  8
0
 62
256
370
-1
 48
1.0
  6
BYLAYER
 10
5.9394496332827345
 20
216.7242755363853064
 30
0.0
 11
5.939449633282706
 21
156.724275536385278
 31
0.0
  0
LINE
  5
1BE
100
AcDbEntity
100
AcDbLine
  8
0
 62
256
370
-1
 48
1.0
  6
BYLAYER
 10
7.5779007914454297
 20
289.0417446180556453
 30
0.0
 11
7.5779007914454013
 21
229.0417446180556169
 31
0.0
  0
LINE
  5
1BF
100
AcDbEntity
100
AcDbLine
  8
0
 62
256
370
-1
 48
1.0
  6
BYLAYER
 10
22.0644996518442014
 20
221.5204226899192292
 30
0.0
 11
82.0644996518442014
 21
221.5204226899191724
 31
0.0
  0
LINE
  5
1C0
100
AcDbEntity
100
AcDbLine
  8
0
 62
256
370
-1
 48
1.0
  6
BYLAYER
 10
7.5779007914454013
 20
229.0417446180556169
 30
0.0
 11
12.5779007914453445
 21
229.0417446180556169
 31
0.0
  0
LINE
  5
1C1
100
AcDbEntity
100
AcDbLine
  8
0
 62
256
370
-1
 48
1.0
  6
BYLAYER
 10
82.0644996518442014
 20
221.5204226899191724
 30
0.0
 11
82.0644996518442014
 21
226.5204226899191724
 31
0.0
  0
LINE
  5
1C2
100
AcDbEntity
100
AcDbLine
  8
0
 62
256
370
-1
 48
1.0
  6
BYLAYER
 10
5.939449633282706
 20
156.724275536385278
 30
0.0
 11
10.9394496332826492
 21
156.724275536385278
 31
0.0
  0
LINE
  5
1C3
100
AcDbEntity
100
AcDbLine
  8
0
 62
256
370
-1
 48
1.0
  6
BYLAYER
 10
79.2247521700259227
 20
148.5615013175676324
 30
0.0
 11
79.2247521700259227
 21
153.5615013175675756
 31
0.0
  0
LINE
  5
1C4
100
AcDbEntity
100
AcDbLine
  8
0
 62
256
370
-1
 48
1.0
  6
BYLAYER
 10
10.9394496332826492
 20
156.724275536385278
 30
0.0
 11
35.9394496332826492
 21
181.7242755363852211
 31
0.0
  0
LINE
  5
1C5
100
AcDbEntity
100
AcDbLine
  8
0
 62
256
370
-1
 48
1.0
  6
BYLAYER
 10
79.2247521700259227
 20
153.5615013175675756
 30
0.0
 11
54.2247521700259796
 21
178.5615013175676324
 31
0.0
  0
LINE
  5
1C6
100
AcDbEntity
100
AcDbLine
  8
0
 62
256
370
-1
 48
1.0
  6
BYLAYER
 10
12.5779007914453445
 20
229.0417446180556169
 30
0.0
 11
37.5779007914453445
 21
254.0417446180555032
 31
0.0
  0
LINE
  5
1C7
100
AcDbEntity
100
AcDbLine
  8
0
 62
256
370
-1
 48
1.0
  6
BYLAYER
 10
82.0644996518442014
 20
226.5204226899191724
 30
0.0
 11
57.0644996518442582
 21
251.5204226899191724
 31
0.0
  0
LINE
  5
1C8
100
AcDbEntity
100
AcDbLine
  8
0
 62
256
370
-1
 48
1.0
  6
BYLAYER
 10
37.5779007914453445
 20
254.0417446180555032
 30
0.0
 11
37.5779007914453729
 21
258.0417446180556453
 31
0.0
  0
LINE
  5
1C9
100
AcDbEntity
100
AcDbLine
  8
0
 62
256
370
-1
 48
1.0
  6
BYLAYER
 10
57.0644996518442582
 20
251.5204226899191724
 30
0.0
 11
53.0644996518442014
 21
251.5204226899191724
 31
0.0
  0
LINE
  5
1CA
100
AcDbEntity
100
AcDbLine
  8
0
 62
256
370
-1
 48
1.0
  6
BYLAYER
 10
35.9394496332826492
 20
181.7242755363852211
 30
0.0
 11
35.9394496332826776
 21
185.724275536385278
 31
0.0
  0
LINE
  5
1CB
100
AcDbEntity
100
AcDbLine
  8
0
 62
256
370
-1
 48
1.0
  6
BYLAYER
 10
54.2247521700259796
 20
178.5615013175676324
 30
0.0
 11
50.2247521700259227
 21
178.5615013175676324
 31
0.0
  0
LINE
  5
1CC
100
AcDbEntity
100
AcDbLine
  8
0
 62
256
370
-1
 48
1.0
  6
BYLAYER
 10
35.9394496332826776
 20
185.724275536385278
 30
0.0
 11
20.939449633282706
 21
185.7242755363852496
 31
0.0
  0
LINE
  5
1CD
100
AcDbEntity
100
AcDbLine
  8
0
 62
256
370
-1
 48
1.0
  6
BYLAYER
 10
50.2247521700259227
 20
178.5615013175676324
 30
0.0
 11
50.2247521700259227
 21
163.5615013175676324
 31
0.0
  0
LINE
  5
1CE
100
AcDbEntity
100
AcDbLine
  8
0
 62
256
370
-1
 48
1.0
  6
BYLAYER
 10
37.5779007914453729
 20
258.0417446180556453
 30
0.0
 11
22.5779007914454013
 21
258.0417446180555316
 31
0.0
  0
LINE
  5
1CF
100
AcDbEntity
100
AcDbLine
  8
0
 62
256
370
-1
 48
1.0
  6
BYLAYER
 10
53.0644996518442014
 20
251.5204226899191724
 30
0.0
 11
53.0644996518442014
 21
236.5204226899191724
 31
0.0
  0
LINE
  5
1D0
100
AcDbEntity
100
AcDbLine
  8
0
 62
256
370
-1
 48
1.0
  6
BYLAYER
 10
22.5779007914454013
 20
258.0417446180555316
 30
0.0
 11
22.5779007914454013
 21
260.0417446180555316
 31
0.0
  0
LINE
  5
1D1
100
AcDbEntity
100
AcDbLine
  8
0
 62
256
370
-1
 48
1.0
  6
BYLAYER
 10
53.0644996518442014
 20
236.5204226899191724
 30
0.0
 11
51.0644996518442014
 21
236.5204226899192292
 31
0.0
  0
LINE
  5
1D2
100
AcDbEntity
100
AcDbLine
  8
0
 62
256
370
-1
 48
1.0
  6
BYLAYER
 10
20.939449633282706
 20
185.7242755363852496
 30
0.0
 11
20.939449633282706
 21
187.7242755363852496
 31
0.0
  0
LINE
  5
1D3
100
AcDbEntity
100
AcDbLine
  8
0
 62
256
370
-1
 48
1.0
  6
BYLAYER
 10
50.2247521700259227
 20
163.5615013175676324
 30
0.0
 11
48.2247521700259227
 21
163.5615013175676609
 31
0.0
  0
LINE
  5
1D4
100
AcDbEntity
100
AcDbLine
  8
0
 62
256
370
-1
 48
1.0
  6
BYLAYER
 10
20.939449633282706
 20
187.7242755363852496
 30
0.0
 11
35.9394496332826776
 21
187.7242755363852211
 31
0.0
  0
LINE
  5
1D5
100
AcDbEntity
100
AcDbLine
  8
0
 62
256
370
-1
 48
1.0
  6
BYLAYER
 10
48.2247521700259227
 20
163.5615013175676609
 30
0.0
 11
48.2247521700259227
 21
178.561501317567604
 31
0.0
  0
LINE
  5
1D6
100
AcDbEntity
100
AcDbLine
  8
0
 62
256
370
-1
 48
1.0
  6
BYLAYER
 10
22.5779007914454013
 20
260.0417446180555316
 30
0.0
 11
37.5779007914453729
 21
260.0417446180555316
 31
0.0
  0
LINE
  5
1D7
100
AcDbEntity
100
AcDbLine
  8
0
 62
256
370
-1
 48
1.0
  6
BYLAYER
 10
51.0644996518442014
 20
236.5204226899192292
 30
0.0
 11
51.0644996518442014
 21
251.5204226899191724
 31
0.0
  0
LINE
  5
1D8
100
AcDbEntity
100
AcDbLine
  8
0
 62
256
370
-1
 48
1.0
  6
BYLAYER
 10
37.5779007914453729
 20
260.0417446180555316
 30
0.0
 11
37.5779007914453729
 21
264.0417446180555316
 31
0.0
  0
LINE
  5
1D9
100
AcDbEntity
100
AcDbLine
  8
0
 62
256
370
-1
 48
1.0
  6
BYLAYER
 10
51.0644996518442014
 20
251.5204226899191724
 30
0.0
 11
47.0644996518442014
 21
251.5204226899191724
 31
0.0
  0
LINE
  5
1DA
100
AcDbEntity
100
AcDbLine
  8
0
 62
256
370
-1
 48
1.0
  6
BYLAYER
 10
35.9394496332826776
 20
187.7242755363852211
 30
0.0
 11
35.9394496332826776
 21
191.7242755363851927
 31
0.0
  0
LINE
  5
1DB
100
AcDbEntity
100
AcDbLine
  8
0
 62
256
370
-1
 48
1.0
  6
BYLAYER
 10
48.2247521700259227
 20
178.561501317567604
 30
0.0
 11
44.2247521700259227
 21
178.5615013175676324
 31
0.0
  0
LINE
  5
1DC
100
AcDbEntity
100
AcDbLine
  8
0
 62
256
370
-1
 48
1.0
  6
BYLAYER
 10
35.9394496332826776
 20
191.7242755363851927
 30
0.0
 11
10.9394496332826776
 21
216.7242755363852496
 31
0.0
  0
LINE
  5
1DD
100
AcDbEntity
100
AcDbLine
  8
0
 62
256
370
-1
 48
1.0
  6
BYLAYER
 10
44.2247521700259227
 20
178.5615013175676324
 30
0.0
 11
19.2247521700259227
 21
153.5615013175676609
 31
0.0
  0
LINE
  5
1DE
100
AcDbEntity
100
AcDbLine
  8
0
 62
256
370
-1
 48
1.0
  6
BYLAYER
 10
37.5779007914453729
 20
264.0417446180555316
 30
0.0
 11
12.5779007914453729
 21
289.0417446180555316
 31
0.0
  0
LINE
  5
1DF
100
AcDbEntity
100
AcDbLine
  8
0
 62
256
370
-1
 48
1.0
  6
BYLAYER
 10
47.0644996518442014
 20
251.5204226899191724
 30
0.0
 11
22.0644996518442014
 21
226.5204226899192292
 31
0.0
  0
LINE
  5
1E0
100
AcDbEntity
100
AcDbLine
  8
0
 62
256
370
-1
 48
1.0
  6
BYLAYER
 10
12.5779007914453729
 20
289.0417446180555316
 30
0.0
 11
7.5779007914454297
 21
289.0417446180556453
 31
0.0
  0
LINE
  5
1E1
100
AcDbEntity
100
AcDbLine
  8
0
 62
256
370
-1
 48
1.0
  6
BYLAYER
 10
22.0644996518442014
 20
226.5204226899192292
 30
0.0
 11
22.0644996518442014
 21
221.5204226899192292
 31
0.0
  0
LINE
  5
1E2
100
AcDbEntity
100
AcDbLine
  8
0
 62
256
370
-1
 48
1.0
  6
BYLAYER
 10
10.9394496332826776
 20
216.7242755363852496
 30
0.0
 11
5.9394496332827345
 21
216.7242755363853064
 31
0.0
  0
LINE
  5
1E3
100
AcDbEntity
100
AcDbLine
  8
0
 62
256
370
-1
 48
1.0
  6
BYLAYER
 10
19.2247521700259227
 20
153.5615013175676609
 30
0.0
 11
19.2247521700259227
 21
148.5615013175676609
 31
0.0
  0
LINE
  5
1E4
100
AcDbEntity
100
AcDbLine
  8
0
 62
256
370
-1
 48
1.0
  6
BYLAYER
 10
5.9394496332826776
 20
202.7242755363853064
 30
0.0
 11
13.939449633282706
 21
202.7242755363853064
 31
0.0
  0
LINE
  5
1E5
100
AcDbEntity
100
AcDbLine
  8
0
 62
256
370
-1
 48
1.0
  6
BYLAYER
 10
33.2247521700258943
 20
148.5615013175676609
 30
0.0
 11
33.2247521700258943
 21
156.5615013175676609
 31
0.0
  0
LINE
  5
1E6
100
AcDbEntity
100
AcDbLine
  8
0
 62
256
370
-1
 48
1.0
  6
BYLAYER
 10
36.0644996518441729
 20
221.5204226899192292
 30
0.0
 11
36.0644996518441729
 21
229.5204226899192292
 31
0.0
  0
LINE
  5
1E7
100
AcDbEntity
100
AcDbLine
  8
0
 62
256
370
-1
 48
1.0
  6
BYLAYER
 10
7.5779007914453729
 20
275.0417446180556453
 30
0.0
 11
15.5779007914454013
 21
275.0417446180556453
 31
0.0
  0
LINE
  5
1E8
100
AcDbEntity
100
AcDbLine
  8
0
 62
256
370
-1
 48
1.0
  6
BYLAYER
 10
13.939449633282706
 20
202.7242755363853064
 30
0.0
 11
13.9394496332827629
 21
201.7242755363853064
 31
0.0
  0
LINE
  5
1E9
100
AcDbEntity
100
AcDbLine
  8
0
 62
256
370
-1
 48
1.0
  6
BYLAYER
 10
33.2247521700258943
 20
156.5615013175676609
 30
0.0
 11
34.2247521700258943
 21
156.5615013175676609
 31
0.0
  0
LINE
  5
1EA
100
AcDbEntity
100
AcDbLine
  8
0
 62
256
370
-1
 48
1.0
  6
BYLAYER
 10
36.0644996518441729
 20
229.5204226899192292
 30
0.0
 11
37.0644996518441729
 21
229.5204226899192292
 31
0.0
  0
LINE
  5
1EB
100
AcDbEntity
100
AcDbLine
  8
0
 62
256
370
-1
 48
1.0
  6
BYLAYER
 10
15.5779007914454013
 20
275.0417446180556453
 30
0.0
 11
15.5779007914454581
 21
274.0417446180556453
 31
0.0
  0
LINE
  5
1EC
100
AcDbEntity
100
AcDbLine
  8
0
 62
256
370
-1
 48
1.0
  6
BYLAYER
 10
13.9394496332827629
 20
201.7242755363853064
 30
0.0
 11
5.9394496332826776
 21
201.7242755363853064
 31
0.0
  0
LINE
  5
1ED
100
AcDbEntity
100
AcDbLine
  8
0
 62
256
370
-1
 48
1.0
  6
BYLAYER
 10
34.2247521700258943
 20
156.5615013175676609
 30
0.0
 11
34.2247521700258943
 21
148.5615013175676609
 31
0.0
  0
LINE
  5
1EE
100
AcDbEntity
100
AcDbLine
  8
0
 62
256
370
-1
 48
1.0
  6
BYLAYER
 10
37.0644996518441729
 20
229.5204226899192292
 30
0.0
 11
37.0644996518441729
 21
221.5204226899192292
 31
0.0
  0
LINE
  5
1EF
100
AcDbEntity
100
AcDbLine
  8
0
 62
256
370
-1
 48
1.0
  6
BYLAYER
 10
15.5779007914454581
 20
274.0417446180556453
 30
0.0
 11
7.5779007914453729
 21
274.0417446180556453
 31
0.0
  0
LINE
  5
1F0
100
AcDbEntity
100
AcDbLine
  8
0
 62
256
370
-1
 48
1.0
  6
BYLAYER
 10
68.0644996518442014
 20
221.5204226899192292
 30
0.0
 11
68.0644996518442014
 21
229.5204226899192292
 31
0.0
  0
LINE
  5
1F1
100
AcDbEntity
100
AcDbLine
  8
0
 62
256
370
-1
 48
1.0
  6
BYLAYER
 10
7.5779007914454013
 20
243.0417446180556169
 30
0.0
 11
15.5779007914454013
 21
243.0417446180556169
 31
0.0
  0
LINE
  5
1F2
100
AcDbEntity
100
AcDbLine
  8
0
 62
256
370
-1
 48
1.0
  6
BYLAYER
 10
5.939449633282706
 20
170.724275536385278
 30
0.0
 11
13.939449633282706
 21
170.724275536385278
 31
0.0
  0
LINE
  5
1F3
100
AcDbEntity
100
AcDbLine
  8
0
 62
256
370
-1
 48
1.0
  6
BYLAYER
 10
65.2247521700259227
 20
148.5615013175676609
 30
0.0
 11
65.2247521700259227
 21
156.5615013175676609
 31
0.0
  0
LINE
  5
1F4
100
AcDbEntity
100
AcDbLine
  8
0
 62
256
370
-1
 48
1.0
  6
BYLAYER
 10
13.939449633282706
 20
170.724275536385278
 30
0.0
 11
13.939449633282706
 21
171.724275536385278
 31
0.0
  0
LINE
  5
1F5
100
AcDbEntity
100
AcDbLine
  8
0
 62
256
370
-1
 48
1.0
  6
BYLAYER
 10
65.2247521700259227
 20
156.5615013175676609
 30
0.0
 11
64.2247521700259227
 21
156.5615013175676609
 31
0.0
  0
LINE
  5
1F6
100
AcDbEntity
100
AcDbLine
  8
0
 62
256
370
-1
 48
1.0
  6
BYLAYER
 10
68.0644996518442014
 20
229.5204226899192292
 30
0.0
 11
67.0644996518442014
 21
229.5204226899192292
 31
0.0
  0
LINE
  5
1F7
100
AcDbEntity
100
AcDbLine
  8
0
 62
256
370
-1
 48
1.0
  6
BYLAYER
 10
15.5779007914454013
 20
243.0417446180556169
 30
0.0
 11
15.5779007914454013
 21
244.0417446180556169
 31
0.0
  0
LINE
  5
1F8
100
AcDbEntity
100
AcDbLine
  8
0
 62
256
370
-1
 48
1.0
  6
BYLAYER
 10
67.0644996518442014
 20
229.5204226899192292
 30
0.0
 11
67.0644996518442014
 21
221.5204226899192292
 31
0.0
  0
LINE
  5
1F9
100
AcDbEntity
100
AcDbLine
  8
0
 62
256
370
-1
 48
1.0
  6
BYLAYER
 10
15.5779007914454013
 20
244.0417446180556169
 30
0.0
 11
7.5779007914454013
 21
244.0417446180556169
 31
0.0
  0
LINE
  5
1FA
100
AcDbEntity
100
AcDbLine
  8
0
 62
256
370
-1
 48
1.0
  6
BYLAYER
 10
13.939449633282706
 20
171.724275536385278
 30
0.0
 11
5.939449633282706
 21
171.724275536385278
 31
0.0
  0
LINE
  5
1FB
100
AcDbEntity
100
AcDbLine
  8
0
 62
256
370
-1
 48
1.0
  6
BYLAYER
 10
64.2247521700259227
 20
156.5615013175676609
 30
0.0
 11
64.2247521700259227
 21
148.5615013175676609
 31
0.0
  0
LINE
  5
1FC
100
AcDbEntity
100
AcDbLine
  8
0
 62
256
370
-1
 48
1.0
  6
BYLAYER
 10
82.8256967555004877
 20
233.84898168851484
 30
0.0
 11
82.8256967555004877
 21
293.8489816885148684
 31
0.0
  0
LINE
  5
1FD
100
AcDbEntity
100
AcDbLine
  8
0
 62
256
370
-1
 48
1.0
  6
BYLAYER
 10
83.0000000000000142
 20
158.5
 30
0.0
 11
83.0000000000000142
 21
218.4999999999999716
 31
0.0
  0
LINE
  5
1FE
100
AcDbEntity
100
AcDbLine
  8
0
 62
256
370
-1
 48
1.0
  6
BYLAYER
 10
82.8256967555004877
 20
293.8489816885148684
 30
0.0
 11
77.8256967555004877
 21
293.8489816885148684
 31
0.0
  0
LINE
  5
1FF
100
AcDbEntity
100
AcDbLine
  8
0
 62
256
370
-1
 48
1.0
  6
BYLAYER
 10
83.0000000000000142
 20
218.4999999999999716
 30
0.0
 11
78.0000000000000142
 21
218.4999999999999716
 31
0.0
  0
LINE
  5
200
100
AcDbEntity
100
AcDbLine
  8
0
 62
256
370
-1
 48
1.0
  6
BYLAYER
 10
77.8256967555004877
 20
293.8489816885148684
 30
0.0
 11
66.8256967555004877
 21
280.8489816885148684
 31
0.0
  0
LINE
  5
201
100
AcDbEntity
100
AcDbLine
  8
0
 62
256
370
-1
 48
1.0
  6
BYLAYER
 10
78.0000000000000142
 20
218.4999999999999716
 30
0.0
 11
67.0000000000000142
 21
205.4999999999999716
 31
0.0
  0
LINE
  5
202
100
AcDbEntity
100
AcDbLine
  8
0
 62
256
370
-1
 48
1.0
  6
BYLAYER
 10
66.8256967555004877
 20
280.8489816885148684
 30
0.0
 11
66.8256967555004877
 21
274.8489816885148684
 31
0.0
  0
LINE
  5
203
100
AcDbEntity
100
AcDbLine
  8
0
 62
256
370
-1
 48
1.0
  6
BYLAYER
 10
67.0000000000000142
 20
205.4999999999999716
 30
0.0
 11
67.0000000000000142
 21
199.4999999999999716
 31
0.0
  0
LINE
  5
204
100
AcDbEntity
100
AcDbLine
  8
0
 62
256
370
-1
 48
1.0
  6
BYLAYER
 10
66.8256967555004877
 20
274.8489816885148684
 30
0.0
 11
74.8256967555004877
 21
274.8489816885148684
 31
0.0
  0
LINE
  5
205
100
AcDbEntity
100
AcDbLine
  8
0
 62
256
370
-1
 48
1.0
  6
BYLAYER
 10
67.0000000000000142
 20
199.4999999999999716
 30
0.0
 11
75.0000000000000142
 21
199.4999999999999716
 31
0.0
  0
LINE
  5
206
100
AcDbEntity
100
AcDbLine
  8
0
 62
256
370
-1
 48
1.0
  6
BYLAYER
 10
74.8256967555004877
 20
274.8489816885148684
 30
0.0
 11
74.8256967555004877
 21
272.8489816885148684
 31
0.0
  0
LINE
  5
207
100
AcDbEntity
100
AcDbLine
  8
0
 62
256
370
-1
 48
1.0
  6
BYLAYER
 10
75.0000000000000142
 20
199.4999999999999716
 30
0.0
 11
75.0000000000000142
 21
197.4999999999999716
 31
0.0
  0
LINE
  5
208
100
AcDbEntity
100
AcDbLine
  8
0
 62
256
370
-1
 48
1.0
  6
BYLAYER
 10
74.8256967555004877
 20
272.8489816885148684
 30
0.0
 11
66.8256967555004877
 21
272.8489816885148684
 31
0.0
  0
LINE
  5
209
100
AcDbEntity
100
AcDbLine
  8
0
 62
256
370
-1
 48
1.0
  6
BYLAYER
 10
75.0000000000000142
 20
197.4999999999999716
 30
0.0
 11
67.0000000000000142
 21
197.4999999999999716
 31
0.0
  0
LINE
  5
20A
100
AcDbEntity
100
AcDbLine
  8
0
 62
256
370
-1
 48
1.0
  6
BYLAYER
 10
66.8256967555004877
 20
272.8489816885148684
 30
0.0
 11
66.8256967555005446
 21
254.84898168851484
 31
0.0
  0
LINE
  5
20B
100
AcDbEntity
100
AcDbLine
  8
0
 62
256
370
-1
 48
1.0
  6
BYLAYER
 10
67.0000000000000142
 20
197.4999999999999716
 30
0.0
 11
67.0000000000000142
 21
179.5
 31
0.0
  0
LINE
  5
20C
100
AcDbEntity
100
AcDbLine
  8
0
 62
256
370
-1
 48
1.0
  6
BYLAYER
 10
66.8256967555005446
 20
254.84898168851484
 30
0.0
 11
74.8256967555004877
 21
254.84898168851484
 31
0.0
  0
LINE
  5
20D
100
AcDbEntity
100
AcDbLine
  8
0
 62
256
370
-1
 48
1.0
  6
BYLAYER
 10
67.0000000000000142
 20
179.5
 30
0.0
 11
75.0000000000000142
 21
179.5
 31
0.0
  0
LINE
  5
20E
100
AcDbEntity
100
AcDbLine
  8
0
 62
256
370
-1
 48
1.0
  6
BYLAYER
 10
74.8256967555004877
 20
254.84898168851484
 30
0.0
 11
74.8256967555005446
 21
252.84898168851484
 31
0.0
  0
LINE
  5
20F
100
AcDbEntity
100
AcDbLine
  8
0
 62
256
370
-1
 48
1.0
  6
BYLAYER
 10
75.0000000000000142
 20
179.5
 30
0.0
 11
75.0000000000000142
 21
177.5
 31
0.0
  0
LINE
  5
210
100
AcDbEntity
100
AcDbLine
  8
0
 62
256
370
-1
 48
1.0
  6
BYLAYER
 10
74.8256967555005446
 20
252.84898168851484
 30
0.0
 11
66.8256967555004309
 21
252.84898168851484
 31
0.0
  0
LINE
  5
211
100
AcDbEntity
100
AcDbLine
  8
0
 62
256
370
-1
 48
1.0
  6
BYLAYER
 10
75.0000000000000142
 20
177.5
 30
0.0
 11
67.0000000000000142
 21
177.5
 31
0.0
  0
LINE
  5
212
100
AcDbEntity
100
AcDbLine
  8
0
 62
256
370
-1
 48
1.0
  6
BYLAYER
 10
66.8256967555004309
 20
252.84898168851484
 30
0.0
 11
66.8256967555004877
 21
246.84898168851484
 31
0.0
  0
LINE
  5
213
100
AcDbEntity
100
AcDbLine
  8
0
 62
256
370
-1
 48
1.0
  6
BYLAYER
 10
67.0000000000000142
 20
177.5
 30
0.0
 11
67.0000000000000142
 21
171.5
 31
0.0
  0
LINE
  5
214
100
AcDbEntity
100
AcDbLine
  8
0
 62
256
370
-1
 48
1.0
  6
BYLAYER
 10
66.8256967555004877
 20
246.84898168851484
 30
0.0
 11
77.8256967555005446
 21
233.84898168851484
 31
0.0
  0
LINE
  5
215
100
AcDbEntity
100
AcDbLine
  8
0
 62
256
370
-1
 48
1.0
  6
BYLAYER
 10
67.0000000000000142
 20
171.5
 30
0.0
 11
78.0000000000000142
 21
158.5
 31
0.0
  0
LINE
  5
216
100
AcDbEntity
100
AcDbLine
  8
0
 62
256
370
-1
 48
1.0
  6
BYLAYER
 10
77.8256967555005446
 20
233.84898168851484
 30
0.0
 11
82.8256967555004877
 21
233.84898168851484
 31
0.0
  0
LINE
  5
217
100
AcDbEntity
100
AcDbLine
  8
0
 62
256
370
-1
 48
1.0
  6
BYLAYER
 10
78.0000000000000142
 20
158.5
 30
0.0
 11
83.0000000000000142
 21
158.5
 31
0.0
  0
ENDSEC
  0
SECTION
  2
OBJECTS
  0
DICTIONARY
  5
C
100
AcDbDictionary
280
0
281
1
  3
ACAD_GROUP
350
D
  3
ACAD_LAYOUT
350
1A
  3
ACAD_MLINESTYLE
350
17
  3
ACAD_PLOTSETTINGS
350
19
  3
ACAD_PLOTSTYLENAME
350
E
  3
AcDbVariableDictionary
350
218
  3
QCAD_OBJECTS
350
219
  0
DICTIONARY
  5
D
100
AcDbDictionary
280
0
281
1
  0
ACDBDICTIONARYWDFLT
  5
E
100
AcDbDictionary
281
1
  3
Normal
350
F
100
AcDbDictionaryWithDefault
340
F
  0
ACDBPLACEHOLDER
  5
F
  0
DICTIONARY
  5
17
100
AcDbDictionary
280
0
281
1
  3
Standard
350
18
  0
MLINESTYLE
  5
18
100
AcDbMlineStyle
  2
STANDARD
 70
0
  3

 62
256
 51
90.0
 52
90.0
 71
2
 49
0.5
 62
256
  6
BYLAYER
 49
-0.5
 62
256
  6
BYLAYER
  0
DICTIONARY
  5
19
100
AcDbDictionary
280
0
281
1
  0
DICTIONARY
  5
1A
100
AcDbDictionary
281
1
  3
Layout1
350
1E
  3
Layout2
350
26
  3
Model
350
22
  0
LAYOUT
  5
1E
100
AcDbPlotSettings
  1

  2
none_device
  4

  6

 40
0.0
 41
0.0
 42
0.0
 43
0.0
 44
0.0
 45
0.0
 46
0.0
 47
0.0
 48
0.0
 49
0.0
140
0.0
141
0.0
142
1.0
143
1.0
 70
688
 72
0
 73
0
 74
5
  7

 75
16
147
1.0
148
0.0
149
0.0
100
AcDbLayout
  1
Layout1
 70
1
 71
1
 10
0.0
 20
0.0
 11
420.0
 21
297.0
 12
0.0
 22
0.0
 32
0.0
 14
100000000000000000000.0
 24
100000000000000000000.0
 34
100000000000000000000.0
 15
-100000000000000000000.0
 25
-100000000000000000000.0
 35
-100000000000000000000.0
146
0.0
 13
0.0
 23
0.0
 33
0.0
 16
1.0
 26
0.0
 36
0.0
 17
0.0
 27
1.0
 37
0.0
 76
0
330
1B
  0
LAYOUT
  5
22
100
AcDbPlotSettings
  1

  2
none_device
  4

  6

 40
0.0
 41
0.0
 42
0.0
 43
0.0
 44
0.0
 45
0.0
 46
0.0
 47
0.0
 48
0.0
 49
0.0
140
0.0
141
0.0
142
1.0
143
1.0
 70
1712
 72
0
 73
0
 74
0
  7

 75
0
147
1.0
148
0.0
149
0.0
100
AcDbLayout
  1
Model
 70
1
 71
0
 10
0.0
 20
0.0
 11
12.0
 21
9.0
 12
0.0
 22
0.0
 32
0.0
 14
0.0
 24
0.0
 34
0.0
 15
0.0
 25
0.0
 35
0.0
146
0.0
 13
0.0
 23
0.0
 33
0.0
 16
1.0
 26
0.0
 36
0.0
 17
0.0
 27
1.0
 37
0.0
 76
0
330
1F
  0
LAYOUT
  5
26
100
AcDbPlotSettings
  1

  2
none_device
  4

  6

 40
0.0
 41
0.0
 42
0.0
 43
0.0
 44
0.0
 45
0.0
 46
0.0
 47
0.0
 48
0.0
 49
0.0
140
0.0
141
0.0
142
1.0
143
1.0
 70
688
 72
0
 73
0
 74
5
  7

 75
16
147
1.0
148
0.0
149
0.0
100
AcDbLayout
  1
Layout2
 70
1
 71
2
 10
0.0
 20
0.0
 11
12.0
 21
9.0
 12
0.0
 22
0.0
 32
0.0
 14
0.0
 24
0.0
 34
0.0
 15
0.0
 25
0.0
 35
0.0
146
0.0
 13
0.0
 23
0.0
 33
0.0
 16
1.0
 26
0.0
 36
0.0
 17
0.0
 27
1.0
 37
0.0
 76
0
330
23
  0
DICTIONARY
  5
218
100
AcDbDictionary
281
1
  3
DIMASSOC
350
21B
  3
HIDETEXT
350
21A
  0
DICTIONARYVAR
  5
21A
100
DictionaryVariables
280
0
  1
2
  0
DICTIONARYVAR
  5
21B
100
DictionaryVariables
280
0
  1
1
  0
DICTIONARY
  5
219
100
AcDbDictionary
281
1
  3
ColorSettings/BackgroundColor
350
21C
  3
ColorSettings/ColorMode
350
21D
  3
Grid/DisplayGrid00
350
21E
  3
Grid/DisplayGrid01
350
21F
  3
Grid/DisplayGrid02
350
220
  3
Grid/DisplayGrid03
350
221
  3
Grid/GridSpacingX00
350
222
  3
Grid/GridSpacingX01
350
223
  3
Grid/GridSpacingX02
350
224
  3
Grid/GridSpacingX03
350
225
  3
Grid/GridSpacingY00
350
226
  3
Grid/GridSpacingY01
350
227
  3
Grid/GridSpacingY02
350
228
  3
Grid/GridSpacingY03
350
229
  3
Grid/IsometricGrid00
350
22A
  3
Grid/IsometricGrid01
350
22B
  3
Grid/IsometricGrid02
350
22C
  3
Grid/IsometricGrid03
350
22D
  3
Grid/IsometricProjection00
350
22E
  3
Grid/IsometricProjection01
350
22F
  3
Grid/IsometricProjection02
350
230
  3
Grid/IsometricProjection03
350
231
  3
Grid/MetaGridSpacingX00
350
232
  3
Grid/MetaGridSpacingX01
350
233
  3
Grid/MetaGridSpacingX02
350
234
  3
Grid/MetaGridSpacingX03
350
235
  3
Grid/MetaGridSpacingY00
350
236
  3
Grid/MetaGridSpacingY01
350
237
  3
Grid/MetaGridSpacingY02
350
238
  3
Grid/MetaGridSpacingY03
350
239
  3
MultiPageSettings/Columns
350
23A
  3
MultiPageSettings/GlueMarginsBottom
350
23B
  3
MultiPageSettings/GlueMarginsLeft
350
23C
  3
MultiPageSettings/GlueMarginsRight
350
23D
  3
MultiPageSettings/GlueMarginsTop
350
23E
  3
MultiPageSettings/PrintCropMarks
350
23F
  3
MultiPageSettings/Rows
350
240
  3
PageSettings/OffsetX
350
241
  3
PageSettings/OffsetY
350
242
  3
PageSettings/PageOrientation
350
243
  3
PageSettings/PaperHeight
350
244
  3
PageSettings/PaperWidth
350
245
  3
PageSettings/Scale
350
246
  3
PageSettings/ShowPaperBorders
350
247
  3
QCADVersion
350
248
  3
UnitSettings/PaperUnit
350
249
  3
ViewportCenter
350
24A
  3
ViewportHeight
350
24B
  3
ViewportWidth
350
24C
  0
XRECORD
  5
21C
330
219
100
AcDbXrecord
280
1
1000
White
  0
XRECORD
  5
21D
330
219
100
AcDbXrecord
280
1
1000
FullColor
  0
XRECORD
  5
21E
330
219
100
AcDbXrecord
280
1
290
1
  0
XRECORD
  5
21F
330
219
100
AcDbXrecord
280
1
290
1
  0
XRECORD
  5
220
330
219
100
AcDbXrecord
280
1
290
1
  0
XRECORD
  5
221
330
219
100
AcDbXrecord
280
1
290
1
  0
XRECORD
  5
222
330
219
100
AcDbXrecord
280
1
1000
auto
  0
XRECORD
  5
223
330
219
100
AcDbXrecord
280
1
1000
auto
  0
XRECORD
  5
224
330
219
100
AcDbXrecord
280
1
1000
auto
  0
XRECORD
  5
225
330
219
100
AcDbXrecord
280
1
1000
auto
  0
XRECORD
  5
226
330
219
100
AcDbXrecord
280
1
1000
auto
  0
XRECORD
  5
227
330
219
100
AcDbXrecord
280
1
1000
auto
  0
XRECORD
  5
228
330
219
100
AcDbXrecord
280
1
1000
auto
  0
XRECORD
  5
229
330
219
100
AcDbXrecord
280
1
1000
auto
  0
XRECORD
  5
22A
330
219
100
AcDbXrecord
280
1
290
0
  0
XRECORD
  5
22B
330
219
100
AcDbXrecord
280
1
290
0
  0
XRECORD
  5
22C
330
219
100
AcDbXrecord
280
1
290
0
  0
XRECORD
  5
22D
330
219
100
AcDbXrecord
280
1
290
0
  0
XRECORD
  5
22E
330
219
100
AcDbXrecord
280
1
 90
0
  0
XRECORD
  5
22F
330
219
100
AcDbXrecord
280
1
 90
0
  0
XRECORD
  5
230
330
219
100
AcDbXrecord
280
1
 90
0
  0
XRECORD
  5
231
330
219
100
AcDbXrecord
280
1
 90
0
  0
XRECORD
  5
232
330
219
100
AcDbXrecord
280
1
1000
auto
  0
XRECORD
  5
233
330
219
100
AcDbXrecord
280
1
1000
auto
  0
XRECORD
  5
234
330
219
100
AcDbXrecord
280
1
1000
auto
  0
XRECORD
  5
235
330
219
100
AcDbXrecord
280
1
1000
auto
  0
XRECORD
  5
236
330
219
100
AcDbXrecord
280
1
1000
auto
  0
XRECORD
  5
237
330
219
100
AcDbXrecord
280
1
1000
auto
  0
XRECORD
  5
238
330
219
100
AcDbXrecord
280
1
1000
auto
  0
XRECORD
  5
239
330
219
100
AcDbXrecord
280
1
1000
auto
  0
XRECORD
  5
23A
330
219
100
AcDbXrecord
280
1
 90
1
  0
XRECORD
  5
23B
330
219
100
AcDbXrecord
280
1
 40
10.0
  0
XRECORD
  5
23C
330
219
100
AcDbXrecord
280
1
 40
10.0
  0
XRECORD
  5
23D
330
219
100
AcDbXrecord
280
1
 40
10.0
  0
XRECORD
  5
23E
330
219
100
AcDbXrecord
280
1
 40
10.0
  0
XRECORD
  5
23F
330
219
100
AcDbXrecord
280
1
290
0
  0
XRECORD
  5
240
330
219
100
AcDbXrecord
280
1
 90
1
  0
XRECORD
  5
241
330
219
100
AcDbXrecord
280
1
 40
0.0
  0
XRECORD
  5
242
330
219
100
AcDbXrecord
280
1
 40
0.0
  0
XRECORD
  5
243
330
219
100
AcDbXrecord
280
1
1000
Portrait
  0
XRECORD
  5
244
330
219
100
AcDbXrecord
280
1
 40
297.0
  0
XRECORD
  5
245
330
219
100
AcDbXrecord
280
1
 40
210.0
  0
XRECORD
  5
246
330
219
100
AcDbXrecord
280
1
1000
1:1
  0
XRECORD
  5
247
330
219
100
AcDbXrecord
280
1
290
1
  0
XRECORD
  5
248
330
219
100
AcDbXrecord
280
1
1000
3.15.4
  0
XRECORD
  5
249
330
219
100
AcDbXrecord
280
1
 90
4
  0
XRECORD
  5
24B
330
219
100
AcDbXrecord
280
1
 40
390.5667071999998825
  0
XRECORD
  5
24C
330
219
100
AcDbXrecord
280
1
 40
1066.7129241599996021
  0
ENDSEC
  0
EOF
